<?xml version="1.0" encoding="UTF-8" standalone="no"?>
<!DOCTYPE svg PUBLIC "-//W3C//DTD SVG 1.1//EN"
 "http://www.w3.org/Graphics/SVG/1.1/DTD/svg11.dtd">
<!-- Generated by graphviz version 2.42.4 (0)
 -->
<!-- Pages: 1 -->
<svg width="795pt" height="260pt"
 viewBox="0.00 0.00 795.00 260.00" xmlns="http://www.w3.org/2000/svg" xmlns:xlink="http://www.w3.org/1999/xlink">
<g id="graph0" class="graph" transform="scale(1 1) rotate(0) translate(4 256)">
<polygon fill="white" stroke="transparent" points="-4,4 -4,-256 791,-256 791,4 -4,4"/>
<!-- 6 -->
<g id="node1" class="node">
<title>6</title>
<ellipse fill="none" stroke="black" cx="434" cy="-234" rx="27" ry="18"/>
<text text-anchor="middle" x="434" y="-230.3" font-family="Times,serif" font-size="14.00">6</text>
</g>
<!-- 11 -->
<g id="node2" class="node">
<title>11</title>
<ellipse fill="none" stroke="black" cx="434" cy="-162" rx="27" ry="18"/>
<text text-anchor="middle" x="434" y="-158.3" font-family="Times,serif" font-size="14.00">11</text>
</g>
<!-- 6&#45;&#45;11 -->
<g id="edge1" class="edge">
<title>6&#45;&#45;11</title>
<path fill="none" stroke="black" d="M434,-215.7C434,-204.85 434,-190.92 434,-180.1"/>
</g>
<!-- 10 -->
<g id="node3" class="node">
<title>10</title>
<ellipse fill="none" stroke="black" cx="506" cy="-162" rx="27" ry="18"/>
<text text-anchor="middle" x="506" y="-158.3" font-family="Times,serif" font-size="14.00">10</text>
</g>
<!-- 6&#45;&#45;10 -->
<g id="edge2" class="edge">
<title>6&#45;&#45;10</title>
<path fill="none" stroke="black" d="M448.57,-218.83C460.98,-206.77 478.73,-189.51 491.2,-177.38"/>
</g>
<!-- 17 -->
<g id="node4" class="node">
<title>17</title>
<ellipse fill="none" stroke="black" cx="290" cy="-162" rx="27" ry="18"/>
<text text-anchor="middle" x="290" y="-158.3" font-family="Times,serif" font-size="14.00">17</text>
</g>
<!-- 6&#45;&#45;17 -->
<g id="edge3" class="edge">
<title>6&#45;&#45;17</title>
<path fill="none" stroke="black" d="M412.75,-222.67C385.53,-209.44 338.6,-186.63 311.33,-173.37"/>
</g>
<!-- 3 -->
<g id="node11" class="node">
<title>3</title>
<ellipse fill="none" stroke="black" cx="164" cy="-90" rx="27" ry="18"/>
<text text-anchor="middle" x="164" y="-86.3" font-family="Times,serif" font-size="14.00">3</text>
</g>
<!-- 17&#45;&#45;3 -->
<g id="edge10" class="edge">
<title>17&#45;&#45;3</title>
<path fill="none" stroke="black" d="M269.76,-149.75C246.24,-136.69 207.69,-115.27 184.19,-102.22"/>
</g>
<!-- 22 -->
<g id="node12" class="node">
<title>22</title>
<ellipse fill="none" stroke="black" cx="308" cy="-90" rx="27" ry="18"/>
<text text-anchor="middle" x="308" y="-86.3" font-family="Times,serif" font-size="14.00">22</text>
</g>
<!-- 17&#45;&#45;22 -->
<g id="edge11" class="edge">
<title>17&#45;&#45;22</title>
<path fill="none" stroke="black" d="M294.36,-144.05C297.19,-133.05 300.86,-118.76 303.68,-107.79"/>
</g>
<!-- 23 -->
<g id="node13" class="node">
<title>23</title>
<ellipse fill="none" stroke="black" cx="380" cy="-90" rx="27" ry="18"/>
<text text-anchor="middle" x="380" y="-86.3" font-family="Times,serif" font-size="14.00">23</text>
</g>
<!-- 17&#45;&#45;23 -->
<g id="edge12" class="edge">
<title>17&#45;&#45;23</title>
<path fill="none" stroke="black" d="M306.93,-147.83C323.02,-135.32 347.08,-116.6 363.15,-104.11"/>
</g>
<!-- 12 -->
<g id="node5" class="node">
<title>12</title>
<ellipse fill="none" stroke="black" cx="561" cy="-234" rx="27" ry="18"/>
<text text-anchor="middle" x="561" y="-230.3" font-family="Times,serif" font-size="14.00">12</text>
</g>
<!-- 12&#45;&#45;10 -->
<g id="edge6" class="edge">
<title>12&#45;&#45;10</title>
<path fill="none" stroke="black" d="M549.07,-217.81C539.84,-206.07 527.13,-189.89 517.91,-178.16"/>
</g>
<!-- 2 -->
<g id="node6" class="node">
<title>2</title>
<ellipse fill="none" stroke="black" cx="688" cy="-162" rx="27" ry="18"/>
<text text-anchor="middle" x="688" y="-158.3" font-family="Times,serif" font-size="14.00">2</text>
</g>
<!-- 12&#45;&#45;2 -->
<g id="edge4" class="edge">
<title>12&#45;&#45;2</title>
<path fill="none" stroke="black" d="M581.12,-221.91C604.76,-208.88 643.77,-187.38 667.55,-174.27"/>
</g>
<!-- 19 -->
<g id="node7" class="node">
<title>19</title>
<ellipse fill="none" stroke="black" cx="380" cy="-18" rx="27" ry="18"/>
<text text-anchor="middle" x="380" y="-14.3" font-family="Times,serif" font-size="14.00">19</text>
</g>
<!-- 12&#45;&#45;19 -->
<g id="edge5" class="edge">
<title>12&#45;&#45;19</title>
<path fill="none" stroke="black" d="M559.56,-215.92C557.51,-197.48 552.73,-167.59 542,-144 525.44,-107.59 518.81,-97.52 488,-72 462.42,-50.82 426.96,-35.5 403.75,-26.94"/>
</g>
<!-- 9 -->
<g id="node8" class="node">
<title>9</title>
<ellipse fill="none" stroke="black" cx="362" cy="-234" rx="27" ry="18"/>
<text text-anchor="middle" x="362" y="-230.3" font-family="Times,serif" font-size="14.00">9</text>
</g>
<!-- 9&#45;&#45;11 -->
<g id="edge9" class="edge">
<title>9&#45;&#45;11</title>
<path fill="none" stroke="black" d="M376.57,-218.83C388.98,-206.77 406.73,-189.51 419.2,-177.38"/>
</g>
<!-- 18 -->
<g id="node9" class="node">
<title>18</title>
<ellipse fill="none" stroke="black" cx="109" cy="-18" rx="27" ry="18"/>
<text text-anchor="middle" x="109" y="-14.3" font-family="Times,serif" font-size="14.00">18</text>
</g>
<!-- 9&#45;&#45;18 -->
<g id="edge7" class="edge">
<title>9&#45;&#45;18</title>
<path fill="none" stroke="black" d="M334.85,-232.55C293.52,-230.51 214.32,-221.05 164,-180 119.49,-143.68 110.86,-69.61 109.29,-36.12"/>
</g>
<!-- 1 -->
<g id="node10" class="node">
<title>1</title>
<ellipse fill="none" stroke="black" cx="362" cy="-162" rx="27" ry="18"/>
<text text-anchor="middle" x="362" y="-158.3" font-family="Times,serif" font-size="14.00">1</text>
</g>
<!-- 9&#45;&#45;1 -->
<g id="edge8" class="edge">
<title>9&#45;&#45;1</title>
<path fill="none" stroke="black" d="M362,-215.7C362,-204.85 362,-190.92 362,-180.1"/>
</g>
<!-- 13 -->
<g id="node22" class="node">
<title>13</title>
<ellipse fill="none" stroke="black" cx="616" cy="-90" rx="27" ry="18"/>
<text text-anchor="middle" x="616" y="-86.3" font-family="Times,serif" font-size="14.00">13</text>
</g>
<!-- 1&#45;&#45;13 -->
<g id="edge25" class="edge">
<title>1&#45;&#45;13</title>
<path fill="none" stroke="black" d="M382.64,-150.38C387.59,-148.08 392.92,-145.8 398,-144 465.57,-120.11 548.63,-103.18 590,-95.55"/>
</g>
<!-- 7 -->
<g id="node23" class="node">
<title>7</title>
<ellipse fill="none" stroke="black" cx="452" cy="-90" rx="27" ry="18"/>
<text text-anchor="middle" x="452" y="-86.3" font-family="Times,serif" font-size="14.00">7</text>
</g>
<!-- 1&#45;&#45;7 -->
<g id="edge24" class="edge">
<title>1&#45;&#45;7</title>
<path fill="none" stroke="black" d="M378.93,-147.83C395.02,-135.32 419.08,-116.6 435.15,-104.11"/>
</g>
<!-- 22&#45;&#45;18 -->
<g id="edge18" class="edge">
<title>22&#45;&#45;18</title>
<path fill="none" stroke="black" d="M286.88,-78.48C282.04,-76.22 276.88,-73.94 272,-72 223.74,-52.85 165.53,-35.18 133.37,-25.87"/>
</g>
<!-- 23&#45;&#45;19 -->
<g id="edge27" class="edge">
<title>23&#45;&#45;19</title>
<path fill="none" stroke="black" d="M380,-71.7C380,-60.85 380,-46.92 380,-36.1"/>
</g>
<!-- 14 -->
<g id="node14" class="node">
<title>14</title>
<ellipse fill="none" stroke="black" cx="27" cy="-234" rx="27" ry="18"/>
<text text-anchor="middle" x="27" y="-230.3" font-family="Times,serif" font-size="14.00">14</text>
</g>
<!-- 14&#45;&#45;18 -->
<g id="edge14" class="edge">
<title>14&#45;&#45;18</title>
<path fill="none" stroke="black" d="M21.29,-216.16C16.03,-197.93 10.12,-168.22 18,-144 33.04,-97.8 72.3,-54.44 94.02,-33"/>
</g>
<!-- 24 -->
<g id="node15" class="node">
<title>24</title>
<ellipse fill="none" stroke="black" cx="54" cy="-162" rx="27" ry="18"/>
<text text-anchor="middle" x="54" y="-158.3" font-family="Times,serif" font-size="14.00">24</text>
</g>
<!-- 14&#45;&#45;24 -->
<g id="edge13" class="edge">
<title>14&#45;&#45;24</title>
<path fill="none" stroke="black" d="M33.4,-216.41C37.64,-205.41 43.19,-191.03 47.46,-179.96"/>
</g>
<!-- 24&#45;&#45;3 -->
<g id="edge15" class="edge">
<title>24&#45;&#45;3</title>
<path fill="none" stroke="black" d="M73.16,-148.81C93.35,-135.96 124.95,-115.85 145.06,-103.05"/>
</g>
<!-- 25 -->
<g id="node16" class="node">
<title>25</title>
<ellipse fill="none" stroke="black" cx="200" cy="-162" rx="27" ry="18"/>
<text text-anchor="middle" x="200" y="-158.3" font-family="Times,serif" font-size="14.00">25</text>
</g>
<!-- 25&#45;&#45;3 -->
<g id="edge16" class="edge">
<title>25&#45;&#45;3</title>
<path fill="none" stroke="black" d="M191.65,-144.76C185.83,-133.46 178.11,-118.44 172.3,-107.15"/>
</g>
<!-- 15 -->
<g id="node17" class="node">
<title>15</title>
<ellipse fill="none" stroke="black" cx="236" cy="-90" rx="27" ry="18"/>
<text text-anchor="middle" x="236" y="-86.3" font-family="Times,serif" font-size="14.00">15</text>
</g>
<!-- 25&#45;&#45;15 -->
<g id="edge17" class="edge">
<title>25&#45;&#45;15</title>
<path fill="none" stroke="black" d="M208.35,-144.76C214.17,-133.46 221.89,-118.44 227.7,-107.15"/>
</g>
<!-- 15&#45;&#45;19 -->
<g id="edge19" class="edge">
<title>15&#45;&#45;19</title>
<path fill="none" stroke="black" d="M257.25,-78.67C284.47,-65.44 331.4,-42.63 358.67,-29.37"/>
</g>
<!-- 16 -->
<g id="node18" class="node">
<title>16</title>
<ellipse fill="none" stroke="black" cx="724" cy="-234" rx="27" ry="18"/>
<text text-anchor="middle" x="724" y="-230.3" font-family="Times,serif" font-size="14.00">16</text>
</g>
<!-- 16&#45;&#45;2 -->
<g id="edge21" class="edge">
<title>16&#45;&#45;2</title>
<path fill="none" stroke="black" d="M715.65,-216.76C709.83,-205.46 702.11,-190.44 696.3,-179.15"/>
</g>
<!-- 21 -->
<g id="node19" class="node">
<title>21</title>
<ellipse fill="none" stroke="black" cx="760" cy="-162" rx="27" ry="18"/>
<text text-anchor="middle" x="760" y="-158.3" font-family="Times,serif" font-size="14.00">21</text>
</g>
<!-- 16&#45;&#45;21 -->
<g id="edge20" class="edge">
<title>16&#45;&#45;21</title>
<path fill="none" stroke="black" d="M732.35,-216.76C738.17,-205.46 745.89,-190.44 751.7,-179.15"/>
</g>
<!-- 4 -->
<g id="node21" class="node">
<title>4</title>
<ellipse fill="none" stroke="black" cx="724" cy="-90" rx="27" ry="18"/>
<text text-anchor="middle" x="724" y="-86.3" font-family="Times,serif" font-size="14.00">4</text>
</g>
<!-- 21&#45;&#45;4 -->
<g id="edge26" class="edge">
<title>21&#45;&#45;4</title>
<path fill="none" stroke="black" d="M751.65,-144.76C745.83,-133.46 738.11,-118.44 732.3,-107.15"/>
</g>
<!-- 20 -->
<g id="node20" class="node">
<title>20</title>
<ellipse fill="none" stroke="black" cx="616" cy="-162" rx="27" ry="18"/>
<text text-anchor="middle" x="616" y="-158.3" font-family="Times,serif" font-size="14.00">20</text>
</g>
<!-- 20&#45;&#45;4 -->
<g id="edge22" class="edge">
<title>20&#45;&#45;4</title>
<path fill="none" stroke="black" d="M634.81,-148.81C654.63,-135.96 685.66,-115.85 705.4,-103.05"/>
</g>
<!-- 20&#45;&#45;13 -->
<g id="edge23" class="edge">
<title>20&#45;&#45;13</title>
<path fill="none" stroke="black" d="M616,-143.7C616,-132.85 616,-118.92 616,-108.1"/>
</g>
</g>
</svg>
