<?xml version="1.0" encoding="UTF-8" standalone="no"?>
<!DOCTYPE svg PUBLIC "-//W3C//DTD SVG 1.1//EN"
 "http://www.w3.org/Graphics/SVG/1.1/DTD/svg11.dtd">
<!-- Generated by graphviz version 2.42.4 (0)
 -->
<!-- Pages: 1 -->
<svg width="206pt" height="332pt"
 viewBox="0.00 0.00 206.00 332.00" xmlns="http://www.w3.org/2000/svg" xmlns:xlink="http://www.w3.org/1999/xlink">
<g id="graph0" class="graph" transform="scale(1 1) rotate(0) translate(4 328)">
<polygon fill="white" stroke="transparent" points="-4,4 -4,-328 202,-328 202,4 -4,4"/>
<!-- 13 -->
<g id="node1" class="node">
<title>13</title>
<ellipse fill="none" stroke="black" cx="63" cy="-306" rx="27" ry="18"/>
<text text-anchor="middle" x="63" y="-302.3" font-family="Times,serif" font-size="14.00">13</text>
</g>
<!-- 20 -->
<g id="node2" class="node">
<title>20</title>
<ellipse fill="none" stroke="black" cx="63" cy="-234" rx="27" ry="18"/>
<text text-anchor="middle" x="63" y="-230.3" font-family="Times,serif" font-size="14.00">20</text>
</g>
<!-- 13&#45;&#45;20 -->
<g id="edge1" class="edge">
<title>13&#45;&#45;20</title>
<path fill="none" stroke="black" d="M63,-287.7C63,-276.85 63,-262.92 63,-252.1"/>
</g>
<!-- 04&#45;a -->
<g id="node3" class="node">
<title>04&#45;a</title>
<ellipse fill="none" stroke="black" cx="27" cy="-162" rx="27" ry="18"/>
<text text-anchor="middle" x="27" y="-158.3" font-family="Times,serif" font-size="14.00">04&#45;a</text>
</g>
<!-- 20&#45;&#45;04&#45;a -->
<g id="edge2" class="edge">
<title>20&#45;&#45;04&#45;a</title>
<path fill="none" stroke="black" d="M54.65,-216.76C48.83,-205.46 41.11,-190.44 35.3,-179.15"/>
</g>
<!-- 04&#45;c -->
<g id="node4" class="node">
<title>04&#45;c</title>
<ellipse fill="none" stroke="black" cx="99" cy="-162" rx="27" ry="18"/>
<text text-anchor="middle" x="99" y="-158.3" font-family="Times,serif" font-size="14.00">04&#45;c</text>
</g>
<!-- 20&#45;&#45;04&#45;c -->
<g id="edge3" class="edge">
<title>20&#45;&#45;04&#45;c</title>
<path fill="none" stroke="black" d="M71.35,-216.76C77.17,-205.46 84.89,-190.44 90.7,-179.15"/>
</g>
<!-- 21 -->
<g id="node5" class="node">
<title>21</title>
<ellipse fill="none" stroke="black" cx="99" cy="-90" rx="27" ry="18"/>
<text text-anchor="middle" x="99" y="-86.3" font-family="Times,serif" font-size="14.00">21</text>
</g>
<!-- 04&#45;a&#45;&#45;21 -->
<g id="edge4" class="edge">
<title>04&#45;a&#45;&#45;21</title>
<path fill="none" stroke="black" d="M41.57,-146.83C53.98,-134.77 71.73,-117.51 84.2,-105.38"/>
</g>
<!-- 16 -->
<g id="node7" class="node">
<title>16</title>
<ellipse fill="none" stroke="black" cx="99" cy="-18" rx="27" ry="18"/>
<text text-anchor="middle" x="99" y="-14.3" font-family="Times,serif" font-size="14.00">16</text>
</g>
<!-- 21&#45;&#45;16 -->
<g id="edge6" class="edge">
<title>21&#45;&#45;16</title>
<path fill="none" stroke="black" d="M99,-71.7C99,-60.85 99,-46.92 99,-36.1"/>
</g>
<!-- 04&#45;b -->
<g id="node6" class="node">
<title>04&#45;b</title>
<ellipse fill="none" stroke="black" cx="171" cy="-162" rx="27" ry="18"/>
<text text-anchor="middle" x="171" y="-158.3" font-family="Times,serif" font-size="14.00">04&#45;b</text>
</g>
<!-- 04&#45;b&#45;&#45;21 -->
<g id="edge5" class="edge">
<title>04&#45;b&#45;&#45;21</title>
<path fill="none" stroke="black" d="M156.43,-146.83C144.02,-134.77 126.27,-117.51 113.8,-105.38"/>
</g>
</g>
</svg>
