<?xml version="1.0" encoding="UTF-8" standalone="no"?>
<!DOCTYPE svg PUBLIC "-//W3C//DTD SVG 1.1//EN"
 "http://www.w3.org/Graphics/SVG/1.1/DTD/svg11.dtd">
<!-- Generated by graphviz version 2.42.4 (0)
 -->
<!-- Pages: 1 -->
<svg width="2100pt" height="332pt"
 viewBox="0.00 0.00 2099.99 332.00" xmlns="http://www.w3.org/2000/svg" xmlns:xlink="http://www.w3.org/1999/xlink">
<g id="graph0" class="graph" transform="scale(1 1) rotate(0) translate(4 328)">
<polygon fill="white" stroke="transparent" points="-4,4 -4,-328 2095.99,-328 2095.99,4 -4,4"/>
<!-- 08.straight.top -->
<g id="node1" class="node">
<title>08.straight.top</title>
<ellipse fill="none" stroke="black" cx="326.74" cy="-306" rx="61.99" ry="18"/>
<text text-anchor="middle" x="326.74" y="-302.3" font-family="Times,serif" font-size="14.00">08.straight.top</text>
</g>
<!-- 02.intersection.high -->
<g id="node2" class="node">
<title>02.intersection.high</title>
<ellipse fill="none" stroke="black" cx="231.74" cy="-234" rx="81.49" ry="18"/>
<text text-anchor="middle" x="231.74" y="-230.3" font-family="Times,serif" font-size="14.00">02.intersection.high</text>
</g>
<!-- 08.straight.top&#45;&#45;02.intersection.high -->
<g id="edge1" class="edge">
<title>08.straight.top&#45;&#45;02.intersection.high</title>
<path fill="none" stroke="black" d="M305.19,-289.12C289.97,-277.9 269.62,-262.91 254.21,-251.55"/>
</g>
<!-- 02.straight.bottom -->
<g id="node3" class="node">
<title>02.straight.bottom</title>
<ellipse fill="none" stroke="black" cx="939.74" cy="-90" rx="76.09" ry="18"/>
<text text-anchor="middle" x="939.74" y="-86.3" font-family="Times,serif" font-size="14.00">02.straight.bottom</text>
</g>
<!-- 08.straight.top&#45;&#45;02.straight.bottom -->
<g id="edge2" class="edge">
<title>08.straight.top&#45;&#45;02.straight.bottom</title>
<path fill="none" stroke="black" d="M374.53,-294.58C433.29,-281.56 527.09,-260.01 541.74,-252 602.99,-218.54 593.56,-175.7 655.74,-144 721.43,-110.51 805.32,-98.01 864.85,-93.43"/>
</g>
<!-- 05.intersection.high -->
<g id="node4" class="node">
<title>05.intersection.high</title>
<ellipse fill="none" stroke="black" cx="416.74" cy="-234" rx="81.49" ry="18"/>
<text text-anchor="middle" x="416.74" y="-230.3" font-family="Times,serif" font-size="14.00">05.intersection.high</text>
</g>
<!-- 08.straight.top&#45;&#45;05.intersection.high -->
<g id="edge3" class="edge">
<title>08.straight.top&#45;&#45;05.intersection.high</title>
<path fill="none" stroke="black" d="M347.62,-288.76C362.05,-277.54 381.19,-262.65 395.67,-251.39"/>
</g>
<!-- 16.curve.inner -->
<g id="node8" class="node">
<title>16.curve.inner</title>
<ellipse fill="none" stroke="black" cx="364.74" cy="-162" rx="61.99" ry="18"/>
<text text-anchor="middle" x="364.74" y="-158.3" font-family="Times,serif" font-size="14.00">16.curve.inner</text>
</g>
<!-- 02.intersection.high&#45;&#45;16.curve.inner -->
<g id="edge6" class="edge">
<title>02.intersection.high&#45;&#45;16.curve.inner</title>
<path fill="none" stroke="black" d="M261.92,-217.12C284.15,-205.42 314.18,-189.61 336.05,-178.1"/>
</g>
<!-- 05.intersection.bottom -->
<g id="node30" class="node">
<title>05.intersection.bottom</title>
<ellipse fill="none" stroke="black" cx="729.74" cy="-18" rx="90.98" ry="18"/>
<text text-anchor="middle" x="729.74" y="-14.3" font-family="Times,serif" font-size="14.00">05.intersection.bottom</text>
</g>
<!-- 02.straight.bottom&#45;&#45;05.intersection.bottom -->
<g id="edge38" class="edge">
<title>02.straight.bottom&#45;&#45;05.intersection.bottom</title>
<path fill="none" stroke="black" d="M897.5,-74.92C861.69,-62.98 810.49,-45.92 774.09,-33.78"/>
</g>
<!-- 01.intersection.low -->
<g id="node36" class="node">
<title>01.intersection.low</title>
<ellipse fill="none" stroke="black" cx="928.74" cy="-18" rx="78.79" ry="18"/>
<text text-anchor="middle" x="928.74" y="-14.3" font-family="Times,serif" font-size="14.00">01.intersection.low</text>
</g>
<!-- 02.straight.bottom&#45;&#45;01.intersection.low -->
<g id="edge37" class="edge">
<title>02.straight.bottom&#45;&#45;01.intersection.low</title>
<path fill="none" stroke="black" d="M937.03,-71.7C935.32,-60.85 933.13,-46.92 931.43,-36.1"/>
</g>
<!-- 04.intersection.high -->
<g id="node35" class="node">
<title>04.intersection.high</title>
<ellipse fill="none" stroke="black" cx="332.74" cy="-18" rx="81.49" ry="18"/>
<text text-anchor="middle" x="332.74" y="-14.3" font-family="Times,serif" font-size="14.00">04.intersection.high</text>
</g>
<!-- 05.intersection.high&#45;&#45;04.intersection.high -->
<g id="edge35" class="edge">
<title>05.intersection.high&#45;&#45;04.intersection.high</title>
<path fill="none" stroke="black" d="M434.51,-216.14C458.81,-193.37 501.46,-154.4 519.74,-144 563.72,-118.98 598.16,-149.05 627.74,-108 637.1,-95.02 638.01,-84.27 627.74,-72 620.39,-63.21 483.33,-41.4 398.65,-28.67"/>
</g>
<!-- 04.intersection.bottom -->
<g id="node5" class="node">
<title>04.intersection.bottom</title>
<ellipse fill="none" stroke="black" cx="122.74" cy="-306" rx="90.98" ry="18"/>
<text text-anchor="middle" x="122.74" y="-302.3" font-family="Times,serif" font-size="14.00">04.intersection.bottom</text>
</g>
<!-- 21.straight.top -->
<g id="node6" class="node">
<title>21.straight.top</title>
<ellipse fill="none" stroke="black" cx="61.74" cy="-234" rx="61.99" ry="18"/>
<text text-anchor="middle" x="61.74" y="-230.3" font-family="Times,serif" font-size="14.00">21.straight.top</text>
</g>
<!-- 04.intersection.bottom&#45;&#45;21.straight.top -->
<g id="edge4" class="edge">
<title>04.intersection.bottom&#45;&#45;21.straight.top</title>
<path fill="none" stroke="black" d="M107.98,-288.05C98.39,-277.05 85.94,-262.76 76.37,-251.79"/>
</g>
<!-- 20.straight.top -->
<g id="node7" class="node">
<title>20.straight.top</title>
<ellipse fill="none" stroke="black" cx="536.74" cy="-18" rx="61.99" ry="18"/>
<text text-anchor="middle" x="536.74" y="-14.3" font-family="Times,serif" font-size="14.00">20.straight.top</text>
</g>
<!-- 04.intersection.bottom&#45;&#45;20.straight.top -->
<g id="edge5" class="edge">
<title>04.intersection.bottom&#45;&#45;20.straight.top</title>
<path fill="none" stroke="black" d="M196.49,-295.44C306.08,-281.15 499.88,-255.5 506.74,-252 507.98,-251.37 644.23,-109.29 644.74,-108 650.71,-93.15 653.21,-85.58 644.74,-72 631.32,-50.46 606.31,-37.43 583.74,-29.68"/>
</g>
<!-- 16.curve.outer -->
<g id="node18" class="node">
<title>16.curve.outer</title>
<ellipse fill="none" stroke="black" cx="84.74" cy="-18" rx="61.99" ry="18"/>
<text text-anchor="middle" x="84.74" y="-14.3" font-family="Times,serif" font-size="14.00">16.curve.outer</text>
</g>
<!-- 21.straight.top&#45;&#45;16.curve.outer -->
<g id="edge14" class="edge">
<title>21.straight.top&#45;&#45;16.curve.outer</title>
<path fill="none" stroke="black" d="M63.59,-215.85C67.89,-175.78 78.58,-76.38 82.89,-36.23"/>
</g>
<!-- 21.straight.bottom -->
<g id="node19" class="node">
<title>21.straight.bottom</title>
<ellipse fill="none" stroke="black" cx="542.74" cy="-90" rx="76.09" ry="18"/>
<text text-anchor="middle" x="542.74" y="-86.3" font-family="Times,serif" font-size="14.00">21.straight.bottom</text>
</g>
<!-- 21.straight.top&#45;&#45;21.straight.bottom -->
<g id="edge15" class="edge">
<title>21.straight.top&#45;&#45;21.straight.bottom</title>
<path fill="none" stroke="black" d="M108.99,-222.24C119.73,-220 131.1,-217.78 141.74,-216 271.59,-194.3 314.9,-232.21 435.74,-180 440.85,-177.8 493.89,-132.78 523.32,-107.64"/>
</g>
<!-- 16.curve.inner&#45;&#45;16.curve.outer -->
<g id="edge30" class="edge">
<title>16.curve.inner&#45;&#45;16.curve.outer</title>
<path fill="none" stroke="black" d="M359.17,-143.73C351.7,-123.37 336.42,-90.05 311.74,-72 263.4,-36.64 195.09,-24.45 146.05,-20.46"/>
</g>
<!-- 16.curve.inner&#45;&#45;21.straight.bottom -->
<g id="edge31" class="edge">
<title>16.curve.inner&#45;&#45;21.straight.bottom</title>
<path fill="none" stroke="black" d="M399.91,-147.17C430.31,-135.22 474.12,-117.99 505.19,-105.77"/>
</g>
<!-- 13.curve.inner -->
<g id="node9" class="node">
<title>13.curve.inner</title>
<ellipse fill="none" stroke="black" cx="667.74" cy="-306" rx="61.99" ry="18"/>
<text text-anchor="middle" x="667.74" y="-302.3" font-family="Times,serif" font-size="14.00">13.curve.inner</text>
</g>
<!-- 01.intersection.high -->
<g id="node10" class="node">
<title>01.intersection.high</title>
<ellipse fill="none" stroke="black" cx="1099.74" cy="-234" rx="81.49" ry="18"/>
<text text-anchor="middle" x="1099.74" y="-230.3" font-family="Times,serif" font-size="14.00">01.intersection.high</text>
</g>
<!-- 13.curve.inner&#45;&#45;01.intersection.high -->
<g id="edge7" class="edge">
<title>13.curve.inner&#45;&#45;01.intersection.high</title>
<path fill="none" stroke="black" d="M713.63,-293.94C723.22,-291.81 733.29,-289.72 742.74,-288 858.83,-266.94 889.23,-270.5 1005.74,-252 1016.8,-250.24 1028.56,-248.23 1039.89,-246.22"/>
</g>
<!-- 20.straight.bottom -->
<g id="node11" class="node">
<title>20.straight.bottom</title>
<ellipse fill="none" stroke="black" cx="771.74" cy="-234" rx="76.09" ry="18"/>
<text text-anchor="middle" x="771.74" y="-230.3" font-family="Times,serif" font-size="14.00">20.straight.bottom</text>
</g>
<!-- 13.curve.inner&#45;&#45;20.straight.bottom -->
<g id="edge8" class="edge">
<title>13.curve.inner&#45;&#45;20.straight.bottom</title>
<path fill="none" stroke="black" d="M691.08,-289.29C707.97,-277.92 730.73,-262.61 747.76,-251.14"/>
</g>
<!-- 13.curve.outer -->
<g id="node12" class="node">
<title>13.curve.outer</title>
<ellipse fill="none" stroke="black" cx="934.74" cy="-234" rx="61.99" ry="18"/>
<text text-anchor="middle" x="934.74" y="-230.3" font-family="Times,serif" font-size="14.00">13.curve.outer</text>
</g>
<!-- 13.curve.inner&#45;&#45;13.curve.outer -->
<g id="edge9" class="edge">
<title>13.curve.inner&#45;&#45;13.curve.outer</title>
<path fill="none" stroke="black" d="M712.13,-293.36C761.51,-280.42 840.83,-259.62 890.25,-246.67"/>
</g>
<!-- 02.straight.top -->
<g id="node25" class="node">
<title>02.straight.top</title>
<ellipse fill="none" stroke="black" cx="775.74" cy="-162" rx="61.99" ry="18"/>
<text text-anchor="middle" x="775.74" y="-158.3" font-family="Times,serif" font-size="14.00">02.straight.top</text>
</g>
<!-- 01.intersection.high&#45;&#45;02.straight.top -->
<g id="edge19" class="edge">
<title>01.intersection.high&#45;&#45;02.straight.top</title>
<path fill="none" stroke="black" d="M1043.68,-220.89C981.55,-207.47 882.42,-186.05 823.74,-173.37"/>
</g>
<!-- 20.straight.bottom&#45;&#45;20.straight.top -->
<g id="edge27" class="edge">
<title>20.straight.bottom&#45;&#45;20.straight.top</title>
<path fill="none" stroke="black" d="M706.76,-224.43C679.49,-217.26 650.31,-204.11 633.74,-180 577.31,-97.87 735.18,-136.78 756.74,-108 766.34,-95.2 766.65,-84.57 756.74,-72 751.37,-65.18 648.55,-42.51 585.4,-29.13"/>
</g>
<!-- 13.curve.outer&#45;&#45;20.straight.top -->
<g id="edge40" class="edge">
<title>13.curve.outer&#45;&#45;20.straight.top</title>
<path fill="none" stroke="black" d="M887.18,-222.42C820.25,-207.49 706.19,-181.81 704.74,-180 694.78,-167.48 696.45,-157.68 704.74,-144 722.68,-114.42 755.81,-137.58 773.74,-108 782.04,-94.32 783.75,-84.49 773.74,-72 767.85,-64.65 654.64,-41.72 586.85,-28.56"/>
</g>
<!-- 01.intersection.bottom -->
<g id="node37" class="node">
<title>01.intersection.bottom</title>
<ellipse fill="none" stroke="black" cx="1191.74" cy="-18" rx="90.98" ry="18"/>
<text text-anchor="middle" x="1191.74" y="-14.3" font-family="Times,serif" font-size="14.00">01.intersection.bottom</text>
</g>
<!-- 13.curve.outer&#45;&#45;01.intersection.bottom -->
<g id="edge41" class="edge">
<title>13.curve.outer&#45;&#45;01.intersection.bottom</title>
<path fill="none" stroke="black" d="M971.34,-219.5C1044.81,-192.03 1204.54,-130.33 1218.74,-108 1233.13,-85.39 1217.51,-54.68 1204.75,-35.88"/>
</g>
<!-- 06.intersection.low -->
<g id="node13" class="node">
<title>06.intersection.low</title>
<ellipse fill="none" stroke="black" cx="1462.74" cy="-234" rx="78.79" ry="18"/>
<text text-anchor="middle" x="1462.74" y="-230.3" font-family="Times,serif" font-size="14.00">06.intersection.low</text>
</g>
<!-- 11.straight.bottom -->
<g id="node14" class="node">
<title>11.straight.bottom</title>
<ellipse fill="none" stroke="black" cx="1564.74" cy="-90" rx="76.09" ry="18"/>
<text text-anchor="middle" x="1564.74" y="-86.3" font-family="Times,serif" font-size="14.00">11.straight.bottom</text>
</g>
<!-- 06.intersection.low&#45;&#45;11.straight.bottom -->
<g id="edge10" class="edge">
<title>06.intersection.low&#45;&#45;11.straight.bottom</title>
<path fill="none" stroke="black" d="M1513.85,-220.27C1534.63,-212.31 1556.58,-199.69 1568.74,-180 1582.24,-158.16 1576.55,-127.22 1570.89,-108.17"/>
</g>
<!-- 11.straight.top -->
<g id="node15" class="node">
<title>11.straight.top</title>
<ellipse fill="none" stroke="black" cx="1191.74" cy="-306" rx="61.99" ry="18"/>
<text text-anchor="middle" x="1191.74" y="-302.3" font-family="Times,serif" font-size="14.00">11.straight.top</text>
</g>
<!-- 11.straight.top&#45;&#45;11.straight.bottom -->
<g id="edge13" class="edge">
<title>11.straight.top&#45;&#45;11.straight.bottom</title>
<path fill="none" stroke="black" d="M1249.14,-299.29C1320.44,-291.57 1445.54,-275.94 1550.74,-252 1603.38,-240.02 1750.73,-223.46 1782.74,-180 1823.72,-124.38 1715.59,-103.41 1637.36,-95.58"/>
</g>
<!-- 09.intersection.high -->
<g id="node16" class="node">
<title>09.intersection.high</title>
<ellipse fill="none" stroke="black" cx="1260.74" cy="-162" rx="81.49" ry="18"/>
<text text-anchor="middle" x="1260.74" y="-158.3" font-family="Times,serif" font-size="14.00">09.intersection.high</text>
</g>
<!-- 11.straight.top&#45;&#45;09.intersection.high -->
<g id="edge11" class="edge">
<title>11.straight.top&#45;&#45;09.intersection.high</title>
<path fill="none" stroke="black" d="M1199.93,-288.15C1213.14,-260.97 1239.02,-207.72 1252.35,-180.27"/>
</g>
<!-- 06.intersection.bottom -->
<g id="node17" class="node">
<title>06.intersection.bottom</title>
<ellipse fill="none" stroke="black" cx="1820.74" cy="-234" rx="90.98" ry="18"/>
<text text-anchor="middle" x="1820.74" y="-230.3" font-family="Times,serif" font-size="14.00">06.intersection.bottom</text>
</g>
<!-- 11.straight.top&#45;&#45;06.intersection.bottom -->
<g id="edge12" class="edge">
<title>11.straight.top&#45;&#45;06.intersection.bottom</title>
<path fill="none" stroke="black" d="M1248.4,-298.7C1361.49,-286.11 1615.35,-257.86 1743.55,-243.59"/>
</g>
<!-- 09.intersection.high&#45;&#45;01.intersection.low -->
<g id="edge36" class="edge">
<title>09.intersection.high&#45;&#45;01.intersection.low</title>
<path fill="none" stroke="black" d="M1257.59,-143.97C1252.87,-123.53 1241.91,-89.8 1218.74,-72 1201.19,-58.51 1074.93,-39.05 994.9,-27.85"/>
</g>
<!-- 10.straight.top -->
<g id="node29" class="node">
<title>10.straight.top</title>
<ellipse fill="none" stroke="black" cx="1400.74" cy="-18" rx="61.99" ry="18"/>
<text text-anchor="middle" x="1400.74" y="-14.3" font-family="Times,serif" font-size="14.00">10.straight.top</text>
</g>
<!-- 06.intersection.bottom&#45;&#45;10.straight.top -->
<g id="edge34" class="edge">
<title>06.intersection.bottom&#45;&#45;10.straight.top</title>
<path fill="none" stroke="black" d="M1886.79,-221.55C1930.93,-212.4 1983.28,-198.12 1996.74,-180 2006.29,-167.16 2003.68,-158.42 1996.74,-144 1974.55,-97.83 1954.13,-91.45 1906.74,-72 1827.59,-39.5 1578.41,-25.84 1461.91,-21.11"/>
</g>
<!-- 21.straight.bottom&#45;&#45;04.intersection.high -->
<g id="edge39" class="edge">
<title>21.straight.bottom&#45;&#45;04.intersection.high</title>
<path fill="none" stroke="black" d="M500.5,-74.92C464.21,-62.82 412.12,-45.46 375.64,-33.3"/>
</g>
<!-- 02.intersection.low -->
<g id="node20" class="node">
<title>02.intersection.low</title>
<ellipse fill="none" stroke="black" cx="1032.74" cy="-306" rx="78.79" ry="18"/>
<text text-anchor="middle" x="1032.74" y="-302.3" font-family="Times,serif" font-size="14.00">02.intersection.low</text>
</g>
<!-- 08.straight.bottom -->
<g id="node21" class="node">
<title>08.straight.bottom</title>
<ellipse fill="none" stroke="black" cx="979.74" cy="-162" rx="76.09" ry="18"/>
<text text-anchor="middle" x="979.74" y="-158.3" font-family="Times,serif" font-size="14.00">08.straight.bottom</text>
</g>
<!-- 02.intersection.low&#45;&#45;08.straight.bottom -->
<g id="edge16" class="edge">
<title>02.intersection.low&#45;&#45;08.straight.bottom</title>
<path fill="none" stroke="black" d="M1092.54,-294.19C1149.12,-281.28 1221.08,-256.23 1189.74,-216 1172.1,-193.34 1100.74,-178.86 1046.06,-170.85"/>
</g>
<!-- 12.intersection.high -->
<g id="node22" class="node">
<title>12.intersection.high</title>
<ellipse fill="none" stroke="black" cx="1478.74" cy="-162" rx="81.49" ry="18"/>
<text text-anchor="middle" x="1478.74" y="-158.3" font-family="Times,serif" font-size="14.00">12.intersection.high</text>
</g>
<!-- 02.intersection.low&#45;&#45;12.intersection.high -->
<g id="edge17" class="edge">
<title>02.intersection.low&#45;&#45;12.intersection.high</title>
<path fill="none" stroke="black" d="M1088.61,-293.3C1146.1,-281.07 1231.65,-262.25 1263.74,-252 1329.94,-230.87 1404.24,-197.96 1445.87,-178.63"/>
</g>
<!-- 08.straight.bottom&#45;&#45;05.intersection.bottom -->
<g id="edge24" class="edge">
<title>08.straight.bottom&#45;&#45;05.intersection.bottom</title>
<path fill="none" stroke="black" d="M1039.27,-150.69C1101.51,-139.31 1191.57,-120.89 1201.74,-108 1211.66,-95.44 1212.48,-83.86 1201.74,-72 1174.69,-42.12 880.74,-41.05 840.74,-36 826.82,-34.24 811.95,-32.13 797.76,-30"/>
</g>
<!-- 12.intersection.high&#45;&#45;10.straight.top -->
<g id="edge25" class="edge">
<title>12.intersection.high&#45;&#45;10.straight.top</title>
<path fill="none" stroke="black" d="M1469.34,-143.87C1454.34,-116.58 1425.2,-63.52 1410.19,-36.19"/>
</g>
<!-- 12.intersection.low -->
<g id="node23" class="node">
<title>12.intersection.low</title>
<ellipse fill="none" stroke="black" cx="1908.74" cy="-162" rx="78.79" ry="18"/>
<text text-anchor="middle" x="1908.74" y="-158.3" font-family="Times,serif" font-size="14.00">12.intersection.low</text>
</g>
<!-- 10.straight.bottom -->
<g id="node24" class="node">
<title>10.straight.bottom</title>
<ellipse fill="none" stroke="black" cx="1821.74" cy="-90" rx="76.09" ry="18"/>
<text text-anchor="middle" x="1821.74" y="-86.3" font-family="Times,serif" font-size="14.00">10.straight.bottom</text>
</g>
<!-- 12.intersection.low&#45;&#45;10.straight.bottom -->
<g id="edge18" class="edge">
<title>12.intersection.low&#45;&#45;10.straight.bottom</title>
<path fill="none" stroke="black" d="M1888.13,-144.41C1874.26,-133.25 1856.05,-118.6 1842.21,-107.47"/>
</g>
<!-- 10.straight.bottom&#45;&#45;10.straight.top -->
<g id="edge23" class="edge">
<title>10.straight.bottom&#45;&#45;10.straight.top</title>
<path fill="none" stroke="black" d="M1761.43,-78.97C1678.67,-65.21 1531.28,-40.7 1452.99,-27.69"/>
</g>
<!-- 02.straight.top&#45;&#45;02.straight.bottom -->
<g id="edge33" class="edge">
<title>02.straight.top&#45;&#45;02.straight.bottom</title>
<path fill="none" stroke="black" d="M809.33,-146.67C837.07,-134.83 876.32,-118.07 904.51,-106.04"/>
</g>
<!-- 05.intersection.low -->
<g id="node27" class="node">
<title>05.intersection.low</title>
<ellipse fill="none" stroke="black" cx="1113.74" cy="-90" rx="78.79" ry="18"/>
<text text-anchor="middle" x="1113.74" y="-86.3" font-family="Times,serif" font-size="14.00">05.intersection.low</text>
</g>
<!-- 02.straight.top&#45;&#45;05.intersection.low -->
<g id="edge32" class="edge">
<title>02.straight.top&#45;&#45;05.intersection.low</title>
<path fill="none" stroke="black" d="M824.53,-150.9C886.32,-138.1 992.57,-116.09 1057.65,-102.62"/>
</g>
<!-- 04.intersection.low -->
<g id="node26" class="node">
<title>04.intersection.low</title>
<ellipse fill="none" stroke="black" cx="501.74" cy="-306" rx="78.79" ry="18"/>
<text text-anchor="middle" x="501.74" y="-302.3" font-family="Times,serif" font-size="14.00">04.intersection.low</text>
</g>
<!-- 04.intersection.low&#45;&#45;20.straight.bottom -->
<g id="edge21" class="edge">
<title>04.intersection.low&#45;&#45;20.straight.bottom</title>
<path fill="none" stroke="black" d="M551.9,-292C600.55,-279.38 673.92,-260.36 722.32,-247.81"/>
</g>
<!-- 04.intersection.low&#45;&#45;05.intersection.low -->
<g id="edge20" class="edge">
<title>04.intersection.low&#45;&#45;05.intersection.low</title>
<path fill="none" stroke="black" d="M535.94,-289.7C555.5,-280.19 580,-266.94 599.74,-252 653.14,-211.61 644.63,-173.47 704.74,-144 833.26,-81.01 883.24,-129.44 1024.74,-108 1035.17,-106.42 1046.23,-104.5 1056.88,-102.53"/>
</g>
<!-- 09.intersection.low -->
<g id="node28" class="node">
<title>09.intersection.low</title>
<ellipse fill="none" stroke="black" cx="1694.74" cy="-162" rx="78.79" ry="18"/>
<text text-anchor="middle" x="1694.74" y="-158.3" font-family="Times,serif" font-size="14.00">09.intersection.low</text>
</g>
<!-- 09.intersection.low&#45;&#45;11.straight.bottom -->
<g id="edge22" class="edge">
<title>09.intersection.low&#45;&#45;11.straight.bottom</title>
<path fill="none" stroke="black" d="M1665.25,-145.12C1643.97,-133.66 1615.38,-118.26 1594.13,-106.82"/>
</g>
<!-- 10.straight.low -->
<g id="node31" class="node">
<title>10.straight.low</title>
<ellipse fill="none" stroke="black" cx="1544.74" cy="-306" rx="63.89" ry="18"/>
<text text-anchor="middle" x="1544.74" y="-302.3" font-family="Times,serif" font-size="14.00">10.straight.low</text>
</g>
<!-- 06.intersection.high -->
<g id="node32" class="node">
<title>06.intersection.high</title>
<ellipse fill="none" stroke="black" cx="2010.74" cy="-234" rx="81.49" ry="18"/>
<text text-anchor="middle" x="2010.74" y="-230.3" font-family="Times,serif" font-size="14.00">06.intersection.high</text>
</g>
<!-- 10.straight.low&#45;&#45;06.intersection.high -->
<g id="edge26" class="edge">
<title>10.straight.low&#45;&#45;06.intersection.high</title>
<path fill="none" stroke="black" d="M1601.56,-297.83C1675.3,-288.33 1807.89,-270.6 1920.74,-252 1930.79,-250.34 1941.43,-248.45 1951.75,-246.55"/>
</g>
<!-- 02.intersection.bottom -->
<g id="node33" class="node">
<title>02.intersection.bottom</title>
<ellipse fill="none" stroke="black" cx="193.74" cy="-162" rx="90.98" ry="18"/>
<text text-anchor="middle" x="193.74" y="-158.3" font-family="Times,serif" font-size="14.00">02.intersection.bottom</text>
</g>
<!-- 02.intersection.bottom&#45;&#45;16.curve.outer -->
<g id="edge29" class="edge">
<title>02.intersection.bottom&#45;&#45;16.curve.outer</title>
<path fill="none" stroke="black" d="M243.61,-146.91C262.75,-138.8 282.65,-126.43 293.74,-108 301.99,-94.29 303.57,-84.63 293.74,-72 275.13,-48.07 196.38,-33.2 141.06,-25.51"/>
</g>
<!-- 12.intersection.bottom -->
<g id="node34" class="node">
<title>12.intersection.bottom</title>
<ellipse fill="none" stroke="black" cx="193.74" cy="-90" rx="90.98" ry="18"/>
<text text-anchor="middle" x="193.74" y="-86.3" font-family="Times,serif" font-size="14.00">12.intersection.bottom</text>
</g>
<!-- 02.intersection.bottom&#45;&#45;12.intersection.bottom -->
<g id="edge28" class="edge">
<title>02.intersection.bottom&#45;&#45;12.intersection.bottom</title>
<path fill="none" stroke="black" d="M193.74,-143.7C193.74,-132.85 193.74,-118.92 193.74,-108.1"/>
</g>
<!-- 09.intersection.bottom -->
<g id="node38" class="node">
<title>09.intersection.bottom</title>
<ellipse fill="none" stroke="black" cx="842.74" cy="-306" rx="90.98" ry="18"/>
<text text-anchor="middle" x="842.74" y="-302.3" font-family="Times,serif" font-size="14.00">09.intersection.bottom</text>
</g>
<!-- 09.intersection.bottom&#45;&#45;01.intersection.bottom -->
<g id="edge42" class="edge">
<title>09.intersection.bottom&#45;&#45;01.intersection.bottom</title>
<path fill="none" stroke="black" d="M909.38,-293.7C921.15,-291.76 933.3,-289.79 944.74,-288 1053.47,-270.95 1084.58,-284.45 1189.74,-252 1224.69,-241.21 1230.39,-231 1263.74,-216 1301.91,-198.84 1327.49,-214.79 1350.74,-180 1391.57,-118.93 1287.91,-61.17 1229.07,-34.47"/>
</g>
</g>
</svg>
