<?xml version="1.0" encoding="UTF-8" standalone="no"?>
<!DOCTYPE svg PUBLIC "-//W3C//DTD SVG 1.1//EN"
 "http://www.w3.org/Graphics/SVG/1.1/DTD/svg11.dtd">
<!-- Generated by graphviz version 2.42.4 (0)
 -->
<!-- Pages: 1 -->
<svg width="2997pt" height="548pt"
 viewBox="0.00 0.00 2996.98 548.00" xmlns="http://www.w3.org/2000/svg" xmlns:xlink="http://www.w3.org/1999/xlink">
<g id="graph0" class="graph" transform="scale(1 1) rotate(0) translate(4 544)">
<polygon fill="white" stroke="transparent" points="-4,4 -4,-544 2992.98,-544 2992.98,4 -4,4"/>
<!-- 12.intersection.high -->
<g id="node1" class="node">
<title>12.intersection.high</title>
<ellipse fill="none" stroke="black" cx="1179.2" cy="-378" rx="81.49" ry="18"/>
<text text-anchor="middle" x="1179.2" y="-374.3" font-family="Times,serif" font-size="14.00">12.intersection.high</text>
</g>
<!-- 02.intersection.low -->
<g id="node2" class="node">
<title>02.intersection.low</title>
<ellipse fill="none" stroke="black" cx="750.2" cy="-18" rx="78.79" ry="18"/>
<text text-anchor="middle" x="750.2" y="-14.3" font-family="Times,serif" font-size="14.00">02.intersection.low</text>
</g>
<!-- 12.intersection.high&#45;&#45;02.intersection.low -->
<g id="edge1" class="edge">
<title>12.intersection.high&#45;&#45;02.intersection.low</title>
<path fill="none" stroke="black" d="M1109.41,-368.77C1034.23,-359.18 920.03,-342.29 880.2,-324 857.24,-313.45 856.82,-302.62 836.2,-288 811.15,-270.23 792.24,-278.79 777.2,-252 769.37,-238.05 772.01,-231.13 777.2,-216 790.36,-177.65 807.53,-175.37 833.2,-144 846.58,-127.66 856.86,-127.79 864.2,-108 869.77,-93 872.81,-85.49 864.2,-72 851.06,-51.39 827.6,-38.67 805.36,-30.88"/>
</g>
<!-- 10.straight.top -->
<g id="node3" class="node">
<title>10.straight.top</title>
<ellipse fill="none" stroke="black" cx="1169.2" cy="-306" rx="61.99" ry="18"/>
<text text-anchor="middle" x="1169.2" y="-302.3" font-family="Times,serif" font-size="14.00">10.straight.top</text>
</g>
<!-- 12.intersection.high&#45;&#45;10.straight.top -->
<g id="edge2" class="edge">
<title>12.intersection.high&#45;&#45;10.straight.top</title>
<path fill="none" stroke="black" d="M1176.73,-359.7C1175.18,-348.85 1173.19,-334.92 1171.65,-324.1"/>
</g>
<!-- 06.intersection.bottom -->
<g id="node45" class="node">
<title>06.intersection.bottom</title>
<ellipse fill="none" stroke="black" cx="980.2" cy="-162" rx="90.98" ry="18"/>
<text text-anchor="middle" x="980.2" y="-158.3" font-family="Times,serif" font-size="14.00">06.intersection.bottom</text>
</g>
<!-- 10.straight.top&#45;&#45;06.intersection.bottom -->
<g id="edge41" class="edge">
<title>10.straight.top&#45;&#45;06.intersection.bottom</title>
<path fill="none" stroke="black" d="M1122.01,-294.36C1080.84,-284.22 1025.25,-268.13 1009.2,-252 989.83,-232.53 983.4,-199.98 981.26,-180.11"/>
</g>
<!-- 10.straight.bottom -->
<g id="node4" class="node">
<title>10.straight.bottom</title>
<ellipse fill="none" stroke="black" cx="832.2" cy="-450" rx="76.09" ry="18"/>
<text text-anchor="middle" x="832.2" y="-446.3" font-family="Times,serif" font-size="14.00">10.straight.bottom</text>
</g>
<!-- 10.straight.bottom&#45;&#45;10.straight.top -->
<g id="edge5" class="edge">
<title>10.straight.bottom&#45;&#45;10.straight.top</title>
<path fill="none" stroke="black" d="M900.29,-441.91C1021.61,-429.11 1263.14,-402.85 1269.2,-396 1279.82,-384.02 1277.45,-373.71 1269.2,-360 1256.95,-339.63 1233.94,-326.67 1213.08,-318.68"/>
</g>
<!-- 06.intersection.high -->
<g id="node5" class="node">
<title>06.intersection.high</title>
<ellipse fill="none" stroke="black" cx="1276.2" cy="-18" rx="81.49" ry="18"/>
<text text-anchor="middle" x="1276.2" y="-14.3" font-family="Times,serif" font-size="14.00">06.intersection.high</text>
</g>
<!-- 10.straight.bottom&#45;&#45;06.intersection.high -->
<g id="edge3" class="edge">
<title>10.straight.bottom&#45;&#45;06.intersection.high</title>
<path fill="none" stroke="black" d="M884.74,-436.83C894.17,-434.97 903.95,-433.26 913.2,-432 1038.75,-414.94 1366.05,-446.59 1482.2,-396 1503.53,-386.71 1499.13,-369.85 1520.2,-360 1582.63,-330.81 1782.39,-375.48 1828.2,-324 1838.84,-312.05 1839.07,-299.74 1828.2,-288 1757.8,-211.94 1451.85,-305.71 1363.2,-252 1289.93,-207.6 1317.31,-154.5 1294.2,-72 1290.8,-59.84 1286.21,-46.36 1282.52,-36.04"/>
</g>
<!-- 12.intersection.low -->
<g id="node6" class="node">
<title>12.intersection.low</title>
<ellipse fill="none" stroke="black" cx="1826.2" cy="-378" rx="78.79" ry="18"/>
<text text-anchor="middle" x="1826.2" y="-374.3" font-family="Times,serif" font-size="14.00">12.intersection.low</text>
</g>
<!-- 10.straight.bottom&#45;&#45;12.intersection.low -->
<g id="edge4" class="edge">
<title>10.straight.bottom&#45;&#45;12.intersection.low</title>
<path fill="none" stroke="black" d="M899.17,-441.32C929.39,-438.06 965.56,-434.46 998.2,-432 1326.99,-407.2 1411.88,-435.72 1739.2,-396 1749.59,-394.74 1760.6,-392.95 1771.17,-391"/>
</g>
<!-- 19.intersection.high -->
<g id="node49" class="node">
<title>19.intersection.high</title>
<ellipse fill="none" stroke="black" cx="1420.2" cy="-162" rx="81.49" ry="18"/>
<text text-anchor="middle" x="1420.2" y="-158.3" font-family="Times,serif" font-size="14.00">19.intersection.high</text>
</g>
<!-- 12.intersection.low&#45;&#45;19.intersection.high -->
<g id="edge46" class="edge">
<title>12.intersection.low&#45;&#45;19.intersection.high</title>
<path fill="none" stroke="black" d="M1885.74,-366.11C1896.86,-364.08 1908.39,-361.97 1919.2,-360 2011.32,-343.21 2181.16,-356.39 2117.2,-288 2076.44,-244.4 1636.59,-274.25 1581.2,-252 1558.08,-242.71 1559.33,-229.23 1538.2,-216 1513.56,-200.56 1483.65,-187.18 1460.11,-177.73"/>
</g>
<!-- 18.intersection.bottom -->
<g id="node7" class="node">
<title>18.intersection.bottom</title>
<ellipse fill="none" stroke="black" cx="962.2" cy="-522" rx="90.98" ry="18"/>
<text text-anchor="middle" x="962.2" y="-518.3" font-family="Times,serif" font-size="14.00">18.intersection.bottom</text>
</g>
<!-- 09.intersection.bottom -->
<g id="node8" class="node">
<title>09.intersection.bottom</title>
<ellipse fill="none" stroke="black" cx="1821.2" cy="-450" rx="90.98" ry="18"/>
<text text-anchor="middle" x="1821.2" y="-446.3" font-family="Times,serif" font-size="14.00">09.intersection.bottom</text>
</g>
<!-- 18.intersection.bottom&#45;&#45;09.intersection.bottom -->
<g id="edge6" class="edge">
<title>18.intersection.bottom&#45;&#45;09.intersection.bottom</title>
<path fill="none" stroke="black" d="M1043.98,-513.9C1081.51,-510.72 1126.6,-507.02 1167.2,-504 1410.61,-485.91 1472.66,-495.36 1715.2,-468 1728.26,-466.53 1742.17,-464.58 1755.46,-462.52"/>
</g>
<!-- 14.curve.outer -->
<g id="node9" class="node">
<title>14.curve.outer</title>
<ellipse fill="none" stroke="black" cx="1609.2" cy="-450" rx="61.99" ry="18"/>
<text text-anchor="middle" x="1609.2" y="-446.3" font-family="Times,serif" font-size="14.00">14.curve.outer</text>
</g>
<!-- 18.intersection.bottom&#45;&#45;14.curve.outer -->
<g id="edge7" class="edge">
<title>18.intersection.bottom&#45;&#45;14.curve.outer</title>
<path fill="none" stroke="black" d="M1043.86,-514.03C1190.37,-501.43 1487.05,-475.5 1534.2,-468 1543.83,-466.47 1554.06,-464.43 1563.78,-462.3"/>
</g>
<!-- 01.intersection.bottom -->
<g id="node21" class="node">
<title>01.intersection.bottom</title>
<ellipse fill="none" stroke="black" cx="2384.2" cy="-18" rx="90.98" ry="18"/>
<text text-anchor="middle" x="2384.2" y="-14.3" font-family="Times,serif" font-size="14.00">01.intersection.bottom</text>
</g>
<!-- 09.intersection.bottom&#45;&#45;01.intersection.bottom -->
<g id="edge35" class="edge">
<title>09.intersection.bottom&#45;&#45;01.intersection.bottom</title>
<path fill="none" stroke="black" d="M1886.3,-437.38C1898.22,-435.44 1910.57,-433.55 1922.2,-432 2082.9,-410.53 2135.75,-458.83 2285.2,-396 2308.18,-386.34 2305.25,-369.71 2328.2,-360 2399.6,-329.8 2623.29,-381.58 2675.2,-324 2685.92,-312.12 2685.01,-300.64 2675.2,-288 2635.84,-237.23 2574.57,-302.77 2535.2,-252 2472.39,-170.99 2622.53,-243.24 2671.2,-180 2694.78,-149.37 2643.88,-75 2640.2,-72 2613.34,-50.09 2527.39,-35.46 2462.43,-27.22"/>
</g>
<!-- 24.straight.bottom -->
<g id="node50" class="node">
<title>24.straight.bottom</title>
<ellipse fill="none" stroke="black" cx="2515.2" cy="-90" rx="76.09" ry="18"/>
<text text-anchor="middle" x="2515.2" y="-86.3" font-family="Times,serif" font-size="14.00">24.straight.bottom</text>
</g>
<!-- 14.curve.outer&#45;&#45;24.straight.bottom -->
<g id="edge55" class="edge">
<title>14.curve.outer&#45;&#45;24.straight.bottom</title>
<path fill="none" stroke="black" d="M1655.2,-437.81C1665.67,-435.59 1676.78,-433.49 1687.2,-432 1803.2,-415.48 2104.27,-439.13 2213.2,-396 2236.7,-386.7 2233.99,-369.98 2257.2,-360 2315.44,-334.96 2498.3,-371.57 2540.2,-324 2550.78,-311.99 2550.64,-300.13 2540.2,-288 2470.44,-206.89 2371.97,-333.11 2302.2,-252 2244.77,-185.23 2389.92,-128.88 2468.58,-104.27"/>
</g>
<!-- 04.intersection.high -->
<g id="node10" class="node">
<title>04.intersection.high</title>
<ellipse fill="none" stroke="black" cx="391.2" cy="-450" rx="81.49" ry="18"/>
<text text-anchor="middle" x="391.2" y="-446.3" font-family="Times,serif" font-size="14.00">04.intersection.high</text>
</g>
<!-- 21.straight.bottom -->
<g id="node11" class="node">
<title>21.straight.bottom</title>
<ellipse fill="none" stroke="black" cx="965.2" cy="-306" rx="76.09" ry="18"/>
<text text-anchor="middle" x="965.2" y="-302.3" font-family="Times,serif" font-size="14.00">21.straight.bottom</text>
</g>
<!-- 04.intersection.high&#45;&#45;21.straight.bottom -->
<g id="edge8" class="edge">
<title>04.intersection.high&#45;&#45;21.straight.bottom</title>
<path fill="none" stroke="black" d="M463.15,-441.55C493.68,-438.46 529.67,-434.93 562.2,-432 611.72,-427.54 974.49,-432.54 1008.2,-396 1027.75,-374.81 1003.13,-343.1 983.88,-323.81"/>
</g>
<!-- 05.intersection.high -->
<g id="node12" class="node">
<title>05.intersection.high</title>
<ellipse fill="none" stroke="black" cx="542.2" cy="-18" rx="81.49" ry="18"/>
<text text-anchor="middle" x="542.2" y="-14.3" font-family="Times,serif" font-size="14.00">05.intersection.high</text>
</g>
<!-- 04.intersection.high&#45;&#45;05.intersection.high -->
<g id="edge9" class="edge">
<title>04.intersection.high&#45;&#45;05.intersection.high</title>
<path fill="none" stroke="black" d="M463.58,-441.63C494.02,-438.57 529.83,-435.04 562.2,-432 607.52,-427.75 939.47,-429.56 970.2,-396 981.01,-384.2 979.94,-372.7 970.2,-360 932.68,-311.06 889.15,-355.61 836.2,-324 826.76,-318.36 772.27,-262.23 768.2,-252 738.53,-177.37 834.56,-134.57 784.2,-72 773.03,-58.12 674.88,-39.99 607.06,-28.94"/>
</g>
<!-- 16.curve.inner -->
<g id="node53" class="node">
<title>16.curve.inner</title>
<ellipse fill="none" stroke="black" cx="848.2" cy="-234" rx="61.99" ry="18"/>
<text text-anchor="middle" x="848.2" y="-230.3" font-family="Times,serif" font-size="14.00">16.curve.inner</text>
</g>
<!-- 21.straight.bottom&#45;&#45;16.curve.inner -->
<g id="edge62" class="edge">
<title>21.straight.bottom&#45;&#45;16.curve.inner</title>
<path fill="none" stroke="black" d="M938.66,-289.12C919.37,-277.58 893.41,-262.05 874.25,-250.58"/>
</g>
<!-- 19.intersection.low -->
<g id="node13" class="node">
<title>19.intersection.low</title>
<ellipse fill="none" stroke="black" cx="1651.2" cy="-378" rx="78.79" ry="18"/>
<text text-anchor="middle" x="1651.2" y="-374.3" font-family="Times,serif" font-size="14.00">19.intersection.low</text>
</g>
<!-- 23.straight.bottom -->
<g id="node14" class="node">
<title>23.straight.bottom</title>
<ellipse fill="none" stroke="black" cx="1666.2" cy="-18" rx="76.09" ry="18"/>
<text text-anchor="middle" x="1666.2" y="-14.3" font-family="Times,serif" font-size="14.00">23.straight.bottom</text>
</g>
<!-- 19.intersection.low&#45;&#45;23.straight.bottom -->
<g id="edge10" class="edge">
<title>19.intersection.low&#45;&#45;23.straight.bottom</title>
<path fill="none" stroke="black" d="M1707.24,-365.3C1717.51,-363.36 1728.16,-361.51 1738.2,-360 1814,-348.64 2029.92,-380.95 2081.2,-324 2091.91,-312.11 2092.14,-299.68 2081.2,-288 2039.89,-243.85 1592.72,-278.17 1538.2,-252 1518.64,-242.61 1524.09,-226.71 1505.2,-216 1436.13,-176.83 1380.38,-241.55 1330.2,-180 1320.1,-167.6 1321.07,-157.14 1330.2,-144 1363.37,-96.28 1526.95,-51.66 1613.03,-31.02"/>
</g>
<!-- 15.curve.inner -->
<g id="node15" class="node">
<title>15.curve.inner</title>
<ellipse fill="none" stroke="black" cx="2010.2" cy="-306" rx="61.99" ry="18"/>
<text text-anchor="middle" x="2010.2" y="-302.3" font-family="Times,serif" font-size="14.00">15.curve.inner</text>
</g>
<!-- 19.intersection.low&#45;&#45;15.curve.inner -->
<g id="edge11" class="edge">
<title>19.intersection.low&#45;&#45;15.curve.inner</title>
<path fill="none" stroke="black" d="M1708.76,-365.7C1718.58,-363.79 1728.68,-361.83 1738.2,-360 1823.04,-343.72 1844.49,-340.87 1929.2,-324 1939.77,-321.9 1951.1,-319.56 1961.84,-317.32"/>
</g>
<!-- 25.straight.top -->
<g id="node27" class="node">
<title>25.straight.top</title>
<ellipse fill="none" stroke="black" cx="1652.2" cy="-234" rx="61.99" ry="18"/>
<text text-anchor="middle" x="1652.2" y="-230.3" font-family="Times,serif" font-size="14.00">25.straight.top</text>
</g>
<!-- 15.curve.inner&#45;&#45;25.straight.top -->
<g id="edge29" class="edge">
<title>15.curve.inner&#45;&#45;25.straight.top</title>
<path fill="none" stroke="black" d="M1961.85,-294.61C1951.12,-292.37 1939.78,-290.06 1929.2,-288 1840.12,-270.68 1817.18,-269.91 1728.2,-252 1718.79,-250.11 1708.76,-247.95 1699.17,-245.83"/>
</g>
<!-- 15.curve.outer -->
<g id="node35" class="node">
<title>15.curve.outer</title>
<ellipse fill="none" stroke="black" cx="1434.2" cy="-234" rx="61.99" ry="18"/>
<text text-anchor="middle" x="1434.2" y="-230.3" font-family="Times,serif" font-size="14.00">15.curve.outer</text>
</g>
<!-- 15.curve.inner&#45;&#45;15.curve.outer -->
<g id="edge30" class="edge">
<title>15.curve.inner&#45;&#45;15.curve.outer</title>
<path fill="none" stroke="black" d="M1963.26,-294.14C1952.14,-291.85 1940.29,-289.63 1929.2,-288 1744.29,-260.75 1694.93,-280.46 1510.2,-252 1500.32,-250.48 1489.79,-248.41 1479.83,-246.25"/>
</g>
<!-- 08.straight.top -->
<g id="node16" class="node">
<title>08.straight.top</title>
<ellipse fill="none" stroke="black" cx="78.2" cy="-450" rx="61.99" ry="18"/>
<text text-anchor="middle" x="78.2" y="-446.3" font-family="Times,serif" font-size="14.00">08.straight.top</text>
</g>
<!-- 08.straight.top&#45;&#45;05.intersection.high -->
<g id="edge12" class="edge">
<title>08.straight.top&#45;&#45;05.intersection.high</title>
<path fill="none" stroke="black" d="M95.83,-432.67C169.24,-364.63 450.4,-104.08 524.32,-35.58"/>
</g>
<!-- 02.intersection.high -->
<g id="node17" class="node">
<title>02.intersection.high</title>
<ellipse fill="none" stroke="black" cx="943.2" cy="-18" rx="81.49" ry="18"/>
<text text-anchor="middle" x="943.2" y="-14.3" font-family="Times,serif" font-size="14.00">02.intersection.high</text>
</g>
<!-- 08.straight.top&#45;&#45;02.intersection.high -->
<g id="edge13" class="edge">
<title>08.straight.top&#45;&#45;02.intersection.high</title>
<path fill="none" stroke="black" d="M136.87,-444.21C181.83,-440.62 245.42,-435.71 301.2,-432 336.52,-429.65 912.9,-421.72 937.2,-396 948.19,-384.37 947.01,-372.64 937.2,-360 897.84,-309.23 845.51,-366.35 797.2,-324 771.26,-301.26 774.77,-285.87 768.2,-252 749.29,-154.41 862.52,-69.36 916.17,-35.09"/>
</g>
<!-- 02.straight.bottom -->
<g id="node18" class="node">
<title>02.straight.bottom</title>
<ellipse fill="none" stroke="black" cx="588.2" cy="-306" rx="76.09" ry="18"/>
<text text-anchor="middle" x="588.2" y="-302.3" font-family="Times,serif" font-size="14.00">02.straight.bottom</text>
</g>
<!-- 08.straight.top&#45;&#45;02.straight.bottom -->
<g id="edge14" class="edge">
<title>08.straight.top&#45;&#45;02.straight.bottom</title>
<path fill="none" stroke="black" d="M137.09,-444.39C288.81,-432.43 681.58,-401.04 686.2,-396 697.02,-384.21 694.4,-373.74 686.2,-360 674.91,-341.06 654.25,-328.48 634.79,-320.35"/>
</g>
<!-- 05.intersection.bottom -->
<g id="node58" class="node">
<title>05.intersection.bottom</title>
<ellipse fill="none" stroke="black" cx="684.2" cy="-90" rx="90.98" ry="18"/>
<text text-anchor="middle" x="684.2" y="-86.3" font-family="Times,serif" font-size="14.00">05.intersection.bottom</text>
</g>
<!-- 02.straight.bottom&#45;&#45;05.intersection.bottom -->
<g id="edge72" class="edge">
<title>02.straight.bottom&#45;&#45;05.intersection.bottom</title>
<path fill="none" stroke="black" d="M581.63,-287.8C575.64,-269.77 568.52,-240.69 574.2,-216 582.19,-181.33 586.17,-171.12 609.2,-144 621.8,-129.17 639.42,-116.44 654.42,-107.18"/>
</g>
<!-- 13.curve.outer -->
<g id="node19" class="node">
<title>13.curve.outer</title>
<ellipse fill="none" stroke="black" cx="1466.2" cy="-522" rx="61.99" ry="18"/>
<text text-anchor="middle" x="1466.2" y="-518.3" font-family="Times,serif" font-size="14.00">13.curve.outer</text>
</g>
<!-- 13.curve.inner -->
<g id="node20" class="node">
<title>13.curve.inner</title>
<ellipse fill="none" stroke="black" cx="2760.2" cy="-90" rx="61.99" ry="18"/>
<text text-anchor="middle" x="2760.2" y="-86.3" font-family="Times,serif" font-size="14.00">13.curve.inner</text>
</g>
<!-- 13.curve.outer&#45;&#45;13.curve.inner -->
<g id="edge15" class="edge">
<title>13.curve.outer&#45;&#45;13.curve.inner</title>
<path fill="none" stroke="black" d="M1528.15,-521.71C1653.03,-521.97 1943.43,-516.73 2181.2,-468 2229.53,-458.1 2237.95,-442.24 2286.2,-432 2464.71,-394.13 2521.86,-453.03 2695.2,-396 2724.38,-386.4 2725.44,-370.79 2754.2,-360 2842.87,-326.75 2903.16,-396.4 2964.2,-324 3000.51,-280.94 2840.77,-152.32 2781.54,-107.01"/>
</g>
<!-- 13.curve.outer&#45;&#45;01.intersection.bottom -->
<g id="edge16" class="edge">
<title>13.curve.outer&#45;&#45;01.intersection.bottom</title>
<path fill="none" stroke="black" d="M1527.92,-520.13C1713.36,-516.42 2281.02,-496.98 2738.2,-396 2847.78,-371.8 2913.12,-413.95 2980.2,-324 3029.85,-257.43 2851.84,-83.95 2831.2,-72 2772.28,-37.88 2586.48,-25.65 2473.82,-21.32"/>
</g>
<!-- 20.straight.top -->
<g id="node22" class="node">
<title>20.straight.top</title>
<ellipse fill="none" stroke="black" cx="2624.2" cy="-378" rx="61.99" ry="18"/>
<text text-anchor="middle" x="2624.2" y="-374.3" font-family="Times,serif" font-size="14.00">20.straight.top</text>
</g>
<!-- 13.curve.outer&#45;&#45;20.straight.top -->
<g id="edge17" class="edge">
<title>13.curve.outer&#45;&#45;20.straight.top</title>
<path fill="none" stroke="black" d="M1527.76,-520.17C1642.64,-517.69 1897.09,-507.75 2107.2,-468 2161.92,-457.65 2172.66,-443.22 2227.2,-432 2364.8,-403.71 2402.49,-418.11 2541.2,-396 2552.68,-394.17 2564.98,-391.85 2576.5,-389.52"/>
</g>
<!-- 04.intersection.bottom -->
<g id="node29" class="node">
<title>04.intersection.bottom</title>
<ellipse fill="none" stroke="black" cx="1749.2" cy="-90" rx="90.98" ry="18"/>
<text text-anchor="middle" x="1749.2" y="-86.3" font-family="Times,serif" font-size="14.00">04.intersection.bottom</text>
</g>
<!-- 20.straight.top&#45;&#45;04.intersection.bottom -->
<g id="edge48" class="edge">
<title>20.straight.top&#45;&#45;04.intersection.bottom</title>
<path fill="none" stroke="black" d="M2610.88,-360.21C2595.27,-341.21 2567.99,-310.06 2540.2,-288 2440.69,-208.99 2414.12,-183.06 2293.2,-144 2271.56,-137.01 1977.14,-110.76 1830.71,-98.02"/>
</g>
<!-- 20.straight.bottom -->
<g id="node51" class="node">
<title>20.straight.bottom</title>
<ellipse fill="none" stroke="black" cx="2879.2" cy="-306" rx="76.09" ry="18"/>
<text text-anchor="middle" x="2879.2" y="-302.3" font-family="Times,serif" font-size="14.00">20.straight.bottom</text>
</g>
<!-- 20.straight.top&#45;&#45;20.straight.bottom -->
<g id="edge49" class="edge">
<title>20.straight.top&#45;&#45;20.straight.bottom</title>
<path fill="none" stroke="black" d="M2667.46,-365.13C2712.93,-352.64 2784.28,-333.06 2831.39,-320.13"/>
</g>
<!-- 22.straight.bottom -->
<g id="node23" class="node">
<title>22.straight.bottom</title>
<ellipse fill="none" stroke="black" cx="728.2" cy="-522" rx="76.09" ry="18"/>
<text text-anchor="middle" x="728.2" y="-518.3" font-family="Times,serif" font-size="14.00">22.straight.bottom</text>
</g>
<!-- 22.straight.bottom&#45;&#45;23.straight.bottom -->
<g id="edge18" class="edge">
<title>22.straight.bottom&#45;&#45;23.straight.bottom</title>
<path fill="none" stroke="black" d="M793.27,-512.58C815.17,-509.8 839.74,-506.71 862.2,-504 1001.66,-487.16 1037.41,-489.65 1176.2,-468 1257.68,-455.29 1276.41,-442.39 1358.2,-432 1635.11,-396.84 1713.23,-458.79 1985.2,-396 2025.58,-386.68 2031.91,-373.16 2071.2,-360 2132.53,-339.46 2172.53,-375.08 2212.2,-324 2222.02,-311.36 2223.06,-299.76 2212.2,-288 2144,-214.13 1853.05,-292.91 1761.2,-252 1739.95,-242.53 1743.47,-227.42 1723.2,-216 1670.61,-186.35 1628.81,-228.02 1592.2,-180 1582.51,-167.28 1581.29,-155.7 1592.2,-144 1670.76,-59.78 2030.65,-192.22 2109.2,-108 2120.12,-96.3 2119.83,-83.97 2109.2,-72 2096.98,-58.22 1858.26,-35.65 1736.44,-24.97"/>
</g>
<!-- 18.intersection.low -->
<g id="node24" class="node">
<title>18.intersection.low</title>
<ellipse fill="none" stroke="black" cx="1446.2" cy="-450" rx="78.79" ry="18"/>
<text text-anchor="middle" x="1446.2" y="-446.3" font-family="Times,serif" font-size="14.00">18.intersection.low</text>
</g>
<!-- 22.straight.bottom&#45;&#45;18.intersection.low -->
<g id="edge19" class="edge">
<title>22.straight.bottom&#45;&#45;18.intersection.low</title>
<path fill="none" stroke="black" d="M792.2,-512.2C814.34,-509.33 839.34,-506.3 862.2,-504 1075.94,-482.47 1130.93,-493.68 1344.2,-468 1358.02,-466.34 1372.82,-464.12 1386.74,-461.84"/>
</g>
<!-- 22.straight.top -->
<g id="node25" class="node">
<title>22.straight.top</title>
<ellipse fill="none" stroke="black" cx="1930.2" cy="-18" rx="61.99" ry="18"/>
<text text-anchor="middle" x="1930.2" y="-14.3" font-family="Times,serif" font-size="14.00">22.straight.top</text>
</g>
<!-- 22.straight.bottom&#45;&#45;22.straight.top -->
<g id="edge20" class="edge">
<title>22.straight.bottom&#45;&#45;22.straight.top</title>
<path fill="none" stroke="black" d="M791.48,-511.89C813.79,-508.96 839.07,-505.97 862.2,-504 952.85,-496.27 1595.79,-501.94 1680.2,-468 1702.7,-458.95 1698.82,-441.32 1721.2,-432 1938.37,-341.64 2035.09,-493.35 2249.2,-396 2269.8,-386.63 2264.91,-370.01 2285.2,-360 2339.88,-333.01 2517.02,-369.85 2557.2,-324 2567.75,-311.97 2563.89,-302.54 2557.2,-288 2546.93,-265.66 2525.48,-274.34 2515.2,-252 2508.52,-237.46 2509.97,-231.12 2515.2,-216 2539.53,-145.77 2650.64,-126.58 2600.2,-72 2579.65,-49.76 2151.73,-28.73 1990.73,-21.58"/>
</g>
<!-- 14.curve.inner -->
<g id="node31" class="node">
<title>14.curve.inner</title>
<ellipse fill="none" stroke="black" cx="2142.2" cy="-378" rx="61.99" ry="18"/>
<text text-anchor="middle" x="2142.2" y="-374.3" font-family="Times,serif" font-size="14.00">14.curve.inner</text>
</g>
<!-- 18.intersection.low&#45;&#45;14.curve.inner -->
<g id="edge26" class="edge">
<title>18.intersection.low&#45;&#45;14.curve.inner</title>
<path fill="none" stroke="black" d="M1502.97,-437.46C1514.59,-435.39 1526.76,-433.44 1538.2,-432 1770.69,-402.66 1832.22,-429.04 2064.2,-396 2074.63,-394.51 2085.74,-392.41 2096.21,-390.19"/>
</g>
<!-- 03.intersection.high -->
<g id="node26" class="node">
<title>03.intersection.high</title>
<ellipse fill="none" stroke="black" cx="331.2" cy="-522" rx="81.49" ry="18"/>
<text text-anchor="middle" x="331.2" y="-518.3" font-family="Times,serif" font-size="14.00">03.intersection.high</text>
</g>
<!-- 03.intersection.high&#45;&#45;06.intersection.high -->
<g id="edge21" class="edge">
<title>03.intersection.high&#45;&#45;06.intersection.high</title>
<path fill="none" stroke="black" d="M389.66,-509.45C442.21,-498.96 521.47,-482.91 590.2,-468 660.17,-452.82 676.3,-441.87 747.2,-432 824.56,-421.23 1395.41,-452.62 1449.2,-396 1477.15,-366.59 1424.85,-296.91 1415.2,-288 1382.04,-257.36 1350.43,-285.55 1320.2,-252 1264,-189.61 1269.43,-78.69 1273.96,-36.21"/>
</g>
<!-- 03.intersection.high&#45;&#45;25.straight.top -->
<g id="edge22" class="edge">
<title>03.intersection.high&#45;&#45;25.straight.top</title>
<path fill="none" stroke="black" d="M396.97,-511.34C416.05,-508.73 436.93,-506.06 456.2,-504 660.55,-482.14 714.37,-501.04 917.2,-468 982.32,-457.4 995.91,-441.44 1061.2,-432 1155.09,-418.43 1828.2,-436.02 1914.2,-396 1933.88,-386.84 1928.24,-370.55 1947.2,-360 2022.7,-318.01 2083.07,-390.5 2138.2,-324 2148.42,-311.68 2149.01,-299.8 2138.2,-288 2107.31,-254.28 1773.4,-259.01 1728.2,-252 1718.32,-250.47 1707.8,-248.4 1697.83,-246.24"/>
</g>
<!-- 21.straight.top -->
<g id="node28" class="node">
<title>21.straight.top</title>
<ellipse fill="none" stroke="black" cx="1378.2" cy="-378" rx="61.99" ry="18"/>
<text text-anchor="middle" x="1378.2" y="-374.3" font-family="Times,serif" font-size="14.00">21.straight.top</text>
</g>
<!-- 21.straight.top&#45;&#45;21.straight.bottom -->
<g id="edge25" class="edge">
<title>21.straight.top&#45;&#45;21.straight.bottom</title>
<path fill="none" stroke="black" d="M1326.32,-368.21C1249.62,-355.21 1106.36,-330.92 1025.24,-317.17"/>
</g>
<!-- 21.straight.top&#45;&#45;04.intersection.bottom -->
<g id="edge23" class="edge">
<title>21.straight.top&#45;&#45;04.intersection.bottom</title>
<path fill="none" stroke="black" d="M1393.76,-360.53C1408.94,-342.36 1428.02,-312.46 1415.2,-288 1402.16,-263.1 1381.26,-273.54 1363.2,-252 1330.97,-213.53 1297.02,-181.65 1330.2,-144 1351.84,-119.45 1547.01,-103.37 1663.2,-95.88"/>
</g>
<!-- 16.curve.outer -->
<g id="node30" class="node">
<title>16.curve.outer</title>
<ellipse fill="none" stroke="black" cx="1344.2" cy="-306" rx="61.99" ry="18"/>
<text text-anchor="middle" x="1344.2" y="-302.3" font-family="Times,serif" font-size="14.00">16.curve.outer</text>
</g>
<!-- 21.straight.top&#45;&#45;16.curve.outer -->
<g id="edge24" class="edge">
<title>21.straight.top&#45;&#45;16.curve.outer</title>
<path fill="none" stroke="black" d="M1369.97,-360.05C1364.71,-349.21 1357.89,-335.18 1352.6,-324.28"/>
</g>
<!-- 16.curve.outer&#45;&#45;16.curve.inner -->
<g id="edge52" class="edge">
<title>16.curve.outer&#45;&#45;16.curve.inner</title>
<path fill="none" stroke="black" d="M1292.14,-296.2C1275.56,-293.47 1257.12,-290.53 1240.2,-288 1120.49,-270.13 979.81,-251.74 903.78,-242.02"/>
</g>
<!-- 02.intersection.bottom -->
<g id="node54" class="node">
<title>02.intersection.bottom</title>
<ellipse fill="none" stroke="black" cx="1109.2" cy="-234" rx="90.98" ry="18"/>
<text text-anchor="middle" x="1109.2" y="-230.3" font-family="Times,serif" font-size="14.00">02.intersection.bottom</text>
</g>
<!-- 16.curve.outer&#45;&#45;02.intersection.bottom -->
<g id="edge53" class="edge">
<title>16.curve.outer&#45;&#45;02.intersection.bottom</title>
<path fill="none" stroke="black" d="M1302.73,-292.65C1262.15,-280.56 1200.36,-262.15 1157.56,-249.4"/>
</g>
<!-- 14.intersection.outer -->
<g id="node46" class="node">
<title>14.intersection.outer</title>
<ellipse fill="none" stroke="black" cx="2201.2" cy="-162" rx="83.39" ry="18"/>
<text text-anchor="middle" x="2201.2" y="-158.3" font-family="Times,serif" font-size="14.00">14.intersection.outer</text>
</g>
<!-- 14.curve.inner&#45;&#45;14.intersection.outer -->
<g id="edge42" class="edge">
<title>14.curve.inner&#45;&#45;14.intersection.outer</title>
<path fill="none" stroke="black" d="M2188.48,-366C2198.57,-363.82 2209.22,-361.69 2219.2,-360 2286.28,-348.65 2478.02,-374.85 2523.2,-324 2533.83,-312.04 2533.82,-299.98 2523.2,-288 2435.02,-188.48 2327.15,-338.55 2226.2,-252 2205.37,-234.14 2201.21,-200.43 2200.75,-180.01"/>
</g>
<!-- 24.straight.top -->
<g id="node47" class="node">
<title>24.straight.top</title>
<ellipse fill="none" stroke="black" cx="1838.2" cy="-162" rx="61.99" ry="18"/>
<text text-anchor="middle" x="1838.2" y="-158.3" font-family="Times,serif" font-size="14.00">24.straight.top</text>
</g>
<!-- 14.curve.inner&#45;&#45;24.straight.top -->
<g id="edge43" class="edge">
<title>14.curve.inner&#45;&#45;24.straight.top</title>
<path fill="none" stroke="black" d="M2188.93,-366.18C2198.9,-364.01 2209.38,-361.84 2219.2,-360 2325.74,-340.03 2523.2,-369.9 2452.2,-288 2415.3,-245.42 2255.74,-266.16 2201.2,-252 2157.9,-240.75 2150.29,-228.05 2107.2,-216 2021.07,-191.9 1996.73,-198.42 1909.2,-180 1900.89,-178.25 1892.07,-176.25 1883.57,-174.26"/>
</g>
<!-- 05.intersection.low -->
<g id="node32" class="node">
<title>05.intersection.low</title>
<ellipse fill="none" stroke="black" cx="1255.2" cy="-522" rx="78.79" ry="18"/>
<text text-anchor="middle" x="1255.2" y="-518.3" font-family="Times,serif" font-size="14.00">05.intersection.low</text>
</g>
<!-- 04.intersection.low -->
<g id="node33" class="node">
<title>04.intersection.low</title>
<ellipse fill="none" stroke="black" cx="2635.2" cy="-234" rx="78.79" ry="18"/>
<text text-anchor="middle" x="2635.2" y="-230.3" font-family="Times,serif" font-size="14.00">04.intersection.low</text>
</g>
<!-- 05.intersection.low&#45;&#45;04.intersection.low -->
<g id="edge27" class="edge">
<title>05.intersection.low&#45;&#45;04.intersection.low</title>
<path fill="none" stroke="black" d="M1320.99,-512.09C1344.38,-509.17 1370.94,-506.12 1395.2,-504 1543.52,-491.02 1925.69,-522.59 2064.2,-468 2087.39,-458.86 2084.18,-441.55 2107.2,-432 2272.48,-363.43 2342.17,-462.73 2508.2,-396 2531.97,-386.45 2530.01,-370.86 2553.2,-360 2625.91,-325.97 2679.41,-386.16 2730.2,-324 2740.33,-311.61 2738.31,-301.8 2730.2,-288 2719.4,-269.6 2699.62,-257.11 2680.9,-248.91"/>
</g>
<!-- 02.straight.top -->
<g id="node34" class="node">
<title>02.straight.top</title>
<ellipse fill="none" stroke="black" cx="1993.2" cy="-450" rx="61.99" ry="18"/>
<text text-anchor="middle" x="1993.2" y="-446.3" font-family="Times,serif" font-size="14.00">02.straight.top</text>
</g>
<!-- 05.intersection.low&#45;&#45;02.straight.top -->
<g id="edge28" class="edge">
<title>05.intersection.low&#45;&#45;02.straight.top</title>
<path fill="none" stroke="black" d="M1321.36,-512.24C1344.67,-509.35 1371.07,-506.29 1395.2,-504 1628.48,-481.87 1689.51,-503.04 1921.2,-468 1930.22,-466.64 1939.77,-464.72 1948.87,-462.67"/>
</g>
<!-- 02.straight.top&#45;&#45;02.straight.bottom -->
<g id="edge45" class="edge">
<title>02.straight.top&#45;&#45;02.straight.bottom</title>
<path fill="none" stroke="black" d="M1949.3,-437.16C1940.08,-435.09 1930.37,-433.21 1921.2,-432 1666.85,-398.35 1014.36,-464.88 767.2,-396 735.77,-387.24 732.27,-374.84 703.2,-360 676.58,-346.4 645.79,-332.29 622.77,-322.06"/>
</g>
<!-- 01.intersection.high -->
<g id="node48" class="node">
<title>01.intersection.high</title>
<ellipse fill="none" stroke="black" cx="2418.2" cy="-378" rx="81.49" ry="18"/>
<text text-anchor="middle" x="2418.2" y="-374.3" font-family="Times,serif" font-size="14.00">01.intersection.high</text>
</g>
<!-- 02.straight.top&#45;&#45;01.intersection.high -->
<g id="edge44" class="edge">
<title>02.straight.top&#45;&#45;01.intersection.high</title>
<path fill="none" stroke="black" d="M2042.25,-438.88C2054.31,-436.51 2067.21,-434.07 2079.2,-432 2187.23,-413.37 2215.02,-413.66 2323.2,-396 2334.37,-394.18 2346.25,-392.14 2357.69,-390.11"/>
</g>
<!-- 06.intersection.low -->
<g id="node36" class="node">
<title>06.intersection.low</title>
<ellipse fill="none" stroke="black" cx="2364.2" cy="-306" rx="78.79" ry="18"/>
<text text-anchor="middle" x="2364.2" y="-302.3" font-family="Times,serif" font-size="14.00">06.intersection.low</text>
</g>
<!-- 11.straight.bottom -->
<g id="node37" class="node">
<title>11.straight.bottom</title>
<ellipse fill="none" stroke="black" cx="1846.2" cy="-234" rx="76.09" ry="18"/>
<text text-anchor="middle" x="1846.2" y="-230.3" font-family="Times,serif" font-size="14.00">11.straight.bottom</text>
</g>
<!-- 06.intersection.low&#45;&#45;11.straight.bottom -->
<g id="edge31" class="edge">
<title>06.intersection.low&#45;&#45;11.straight.bottom</title>
<path fill="none" stroke="black" d="M2306.27,-293.71C2294.68,-291.65 2282.58,-289.64 2271.2,-288 2120.8,-266.32 2081.42,-274.92 1931.2,-252 1921.24,-250.48 1910.66,-248.59 1900.49,-246.63"/>
</g>
<!-- 03.intersection.low -->
<g id="node38" class="node">
<title>03.intersection.low</title>
<ellipse fill="none" stroke="black" cx="2019.2" cy="-234" rx="78.79" ry="18"/>
<text text-anchor="middle" x="2019.2" y="-230.3" font-family="Times,serif" font-size="14.00">03.intersection.low</text>
</g>
<!-- 06.intersection.low&#45;&#45;03.intersection.low -->
<g id="edge32" class="edge">
<title>06.intersection.low&#45;&#45;03.intersection.low</title>
<path fill="none" stroke="black" d="M2307.24,-293.44C2243.22,-280.45 2139.91,-259.49 2075.97,-246.52"/>
</g>
<!-- 09.intersection.low -->
<g id="node43" class="node">
<title>09.intersection.low</title>
<ellipse fill="none" stroke="black" cx="1680.2" cy="-162" rx="78.79" ry="18"/>
<text text-anchor="middle" x="1680.2" y="-158.3" font-family="Times,serif" font-size="14.00">09.intersection.low</text>
</g>
<!-- 11.straight.bottom&#45;&#45;09.intersection.low -->
<g id="edge39" class="edge">
<title>11.straight.bottom&#45;&#45;09.intersection.low</title>
<path fill="none" stroke="black" d="M1810.59,-217.98C1782.68,-206.21 1744.01,-189.91 1716.04,-178.11"/>
</g>
<!-- 11.straight.top -->
<g id="node44" class="node">
<title>11.straight.top</title>
<ellipse fill="none" stroke="black" cx="1111.2" cy="-18" rx="61.99" ry="18"/>
<text text-anchor="middle" x="1111.2" y="-14.3" font-family="Times,serif" font-size="14.00">11.straight.top</text>
</g>
<!-- 11.straight.bottom&#45;&#45;11.straight.top -->
<g id="edge40" class="edge">
<title>11.straight.bottom&#45;&#45;11.straight.top</title>
<path fill="none" stroke="black" d="M1783.68,-223.68C1731.69,-215.05 1656.13,-200.46 1592.2,-180 1554.3,-167.87 1547.47,-157.97 1510.2,-144 1382.93,-96.29 1228.37,-51.5 1154.54,-30.88"/>
</g>
<!-- 03.intersection.low&#45;&#45;24.straight.top -->
<g id="edge54" class="edge">
<title>03.intersection.low&#45;&#45;24.straight.top</title>
<path fill="none" stroke="black" d="M1980.82,-218.15C1949.17,-205.91 1904.62,-188.68 1873.77,-176.75"/>
</g>
<!-- 19.intersection.bottom -->
<g id="node39" class="node">
<title>19.intersection.bottom</title>
<ellipse fill="none" stroke="black" cx="1728.2" cy="-306" rx="90.98" ry="18"/>
<text text-anchor="middle" x="1728.2" y="-302.3" font-family="Times,serif" font-size="14.00">19.intersection.bottom</text>
</g>
<!-- 19.intersection.bottom&#45;&#45;15.curve.outer -->
<g id="edge34" class="edge">
<title>19.intersection.bottom&#45;&#45;15.curve.outer</title>
<path fill="none" stroke="black" d="M1672.56,-291.75C1616.96,-278.51 1532.47,-258.4 1480.44,-246.01"/>
</g>
<!-- 12.intersection.bottom -->
<g id="node40" class="node">
<title>12.intersection.bottom</title>
<ellipse fill="none" stroke="black" cx="1161.2" cy="-90" rx="90.98" ry="18"/>
<text text-anchor="middle" x="1161.2" y="-86.3" font-family="Times,serif" font-size="14.00">12.intersection.bottom</text>
</g>
<!-- 19.intersection.bottom&#45;&#45;12.intersection.bottom -->
<g id="edge33" class="edge">
<title>19.intersection.bottom&#45;&#45;12.intersection.bottom</title>
<path fill="none" stroke="black" d="M1638.03,-303.47C1555.73,-299.64 1431.8,-287.74 1330.2,-252 1271.89,-231.49 1254.2,-224.41 1211.2,-180 1190.62,-158.74 1175.61,-127.34 1167.67,-108.08"/>
</g>
<!-- 25.straight.bottom -->
<g id="node41" class="node">
<title>25.straight.bottom</title>
<ellipse fill="none" stroke="black" cx="541.2" cy="-522" rx="76.09" ry="18"/>
<text text-anchor="middle" x="541.2" y="-518.3" font-family="Times,serif" font-size="14.00">25.straight.bottom</text>
</g>
<!-- 25.straight.bottom&#45;&#45;25.straight.top -->
<g id="edge37" class="edge">
<title>25.straight.bottom&#45;&#45;25.straight.top</title>
<path fill="none" stroke="black" d="M599.61,-510.44C613.84,-508.1 629.04,-505.78 643.2,-504 829.97,-480.51 878.65,-493.12 1065.2,-468 1152.55,-456.24 1172.68,-442.33 1260.2,-432 1412.03,-414.08 1803.49,-448.12 1947.2,-396 1972.27,-386.91 1970.76,-370.65 1995.2,-360 2078.01,-323.93 2137.27,-393.29 2195.2,-324 2205.47,-311.73 2206.08,-299.74 2195.2,-288 2159.85,-249.81 1779.67,-259.7 1728.2,-252 1718.31,-250.52 1707.78,-248.47 1697.82,-246.32"/>
</g>
<!-- 25.straight.bottom&#45;&#45;15.curve.outer -->
<g id="edge38" class="edge">
<title>25.straight.bottom&#45;&#45;15.curve.outer</title>
<path fill="none" stroke="black" d="M600.75,-510.72C614.67,-508.42 629.44,-506.05 643.2,-504 764.69,-485.9 795.45,-484.18 917.2,-468 1036.34,-452.17 1065.89,-446.42 1185.2,-432 1333.87,-414.03 1382.4,-454.59 1520.2,-396 1543.14,-386.25 1540.3,-369.82 1563.2,-360 1628.57,-331.99 1833.83,-377.04 1881.2,-324 1891.86,-312.07 1891.96,-299.85 1881.2,-288 1853.37,-257.33 1551.1,-258.53 1510.2,-252 1500.32,-250.42 1489.81,-248.34 1479.84,-246.17"/>
</g>
<!-- 03.intersection.bottom -->
<g id="node42" class="node">
<title>03.intersection.bottom</title>
<ellipse fill="none" stroke="black" cx="2009.2" cy="-162" rx="90.98" ry="18"/>
<text text-anchor="middle" x="2009.2" y="-158.3" font-family="Times,serif" font-size="14.00">03.intersection.bottom</text>
</g>
<!-- 25.straight.bottom&#45;&#45;03.intersection.bottom -->
<g id="edge36" class="edge">
<title>25.straight.bottom&#45;&#45;03.intersection.bottom</title>
<path fill="none" stroke="black" d="M599.32,-510.31C613.63,-507.95 628.94,-505.67 643.2,-504 879.03,-476.45 940.82,-499.1 1176.2,-468 1257.95,-457.2 1276.41,-442.39 1358.2,-432 1635.11,-396.84 1713.23,-458.79 1985.2,-396 2025.58,-386.68 2031.01,-370.06 2071.2,-360 2153.7,-339.35 2394.97,-386.9 2452.2,-324 2462.97,-312.17 2462.68,-300.09 2452.2,-288 2415.3,-245.42 2255.23,-268.02 2201.2,-252 2140.27,-233.93 2074.01,-199.64 2037.45,-179.3"/>
</g>
<!-- 03.intersection.bottom&#45;&#45;24.straight.bottom -->
<g id="edge47" class="edge">
<title>03.intersection.bottom&#45;&#45;24.straight.bottom</title>
<path fill="none" stroke="black" d="M2074.49,-149.41C2086.04,-147.5 2097.96,-145.62 2109.2,-144 2244.75,-124.52 2279.66,-127.48 2415.2,-108 2428.63,-106.07 2443.02,-103.76 2456.59,-101.48"/>
</g>
<!-- 18.intersection.high -->
<g id="node52" class="node">
<title>18.intersection.high</title>
<ellipse fill="none" stroke="black" cx="2325.2" cy="-90" rx="81.49" ry="18"/>
<text text-anchor="middle" x="2325.2" y="-86.3" font-family="Times,serif" font-size="14.00">18.intersection.high</text>
</g>
<!-- 09.intersection.low&#45;&#45;18.intersection.high -->
<g id="edge51" class="edge">
<title>09.intersection.low&#45;&#45;18.intersection.high</title>
<path fill="none" stroke="black" d="M1735.75,-149.2C1746.17,-147.26 1756.99,-145.42 1767.2,-144 1958.92,-117.4 2008.81,-129.15 2201.2,-108 2220.21,-105.91 2240.8,-103.25 2259.65,-100.65"/>
</g>
<!-- 06.intersection.bottom&#45;&#45;11.straight.top -->
<g id="edge61" class="edge">
<title>06.intersection.bottom&#45;&#45;11.straight.top</title>
<path fill="none" stroke="black" d="M995.34,-144.19C1011.55,-126.23 1038.06,-96.98 1061.2,-72 1072.55,-59.75 1085.49,-46.04 1095.36,-35.64"/>
</g>
<!-- 24.straight.top&#45;&#45;24.straight.bottom -->
<g id="edge60" class="edge">
<title>24.straight.top&#45;&#45;24.straight.bottom</title>
<path fill="none" stroke="black" d="M1882.3,-149.26C1891.15,-147.24 1900.44,-145.35 1909.2,-144 2132.03,-109.64 2191.36,-134.92 2415.2,-108 2428.93,-106.35 2443.64,-104.11 2457.44,-101.8"/>
</g>
<!-- 01.intersection.high&#45;&#45;13.curve.inner -->
<g id="edge50" class="edge">
<title>01.intersection.high&#45;&#45;13.curve.inner</title>
<path fill="none" stroke="black" d="M2479.3,-366.05C2565.67,-350.58 2713.09,-324.14 2713.2,-324 2723.47,-311.73 2723.25,-300.46 2713.2,-288 2665.82,-229.23 2594.59,-310.77 2547.2,-252 2537.16,-239.54 2537.05,-228.37 2547.2,-216 2599.24,-152.6 2666.06,-233.52 2728.2,-180 2749.36,-161.78 2756.53,-128.51 2758.96,-108.22"/>
</g>
<!-- 23.straight.top -->
<g id="node59" class="node">
<title>23.straight.top</title>
<ellipse fill="none" stroke="black" cx="2038.2" cy="-90" rx="61.99" ry="18"/>
<text text-anchor="middle" x="2038.2" y="-86.3" font-family="Times,serif" font-size="14.00">23.straight.top</text>
</g>
<!-- 19.intersection.high&#45;&#45;23.straight.top -->
<g id="edge63" class="edge">
<title>19.intersection.high&#45;&#45;23.straight.top</title>
<path fill="none" stroke="black" d="M1480.48,-149.86C1492.93,-147.75 1505.97,-145.68 1518.2,-144 1606.31,-131.88 1864.32,-107.25 1980.42,-96.37"/>
</g>
<!-- 20.straight.bottom&#45;&#45;13.curve.inner -->
<g id="edge68" class="edge">
<title>20.straight.bottom&#45;&#45;13.curve.inner</title>
<path fill="none" stroke="black" d="M2869.67,-287.85C2847.33,-247.68 2791.84,-147.89 2769.62,-107.94"/>
</g>
<!-- 20.straight.bottom&#45;&#45;04.intersection.low -->
<g id="edge69" class="edge">
<title>20.straight.bottom&#45;&#45;04.intersection.low</title>
<path fill="none" stroke="black" d="M2832.74,-291.67C2789.6,-279.29 2725.68,-260.96 2682.33,-248.52"/>
</g>
<!-- 18.intersection.high&#45;&#45;22.straight.top -->
<g id="edge64" class="edge">
<title>18.intersection.high&#45;&#45;22.straight.top</title>
<path fill="none" stroke="black" d="M2263.92,-78.14C2186.34,-64.39 2054.1,-40.96 1981.56,-28.1"/>
</g>
<!-- 16.curve.inner&#45;&#45;02.intersection.high -->
<g id="edge70" class="edge">
<title>16.curve.inner&#45;&#45;02.intersection.high</title>
<path fill="none" stroke="black" d="M842.61,-215.91C837.44,-196.64 832.54,-165.24 847.2,-144 872.86,-106.84 916.34,-145.01 942.2,-108 956.99,-86.85 952.91,-55.42 948.29,-36.12"/>
</g>
<!-- 02.intersection.bottom&#45;&#45;12.intersection.bottom -->
<g id="edge67" class="edge">
<title>02.intersection.bottom&#45;&#45;12.intersection.bottom</title>
<path fill="none" stroke="black" d="M1109.56,-215.97C1110.47,-197.59 1113.48,-167.74 1123.2,-144 1128.62,-130.8 1137.91,-117.75 1145.95,-107.91"/>
</g>
<!-- 09.intersection.high -->
<g id="node55" class="node">
<title>09.intersection.high</title>
<ellipse fill="none" stroke="black" cx="97.2" cy="-522" rx="81.49" ry="18"/>
<text text-anchor="middle" x="97.2" y="-518.3" font-family="Times,serif" font-size="14.00">09.intersection.high</text>
</g>
<!-- 09.intersection.high&#45;&#45;11.straight.top -->
<g id="edge57" class="edge">
<title>09.intersection.high&#45;&#45;11.straight.top</title>
<path fill="none" stroke="black" d="M167.37,-512.87C261.37,-501.7 423.11,-481.49 481.2,-468 530.9,-456.46 540.21,-442.17 590.2,-432 685.25,-412.66 948.55,-455.44 1025.2,-396 1064.14,-365.81 1075.36,-330.37 1050.2,-288 1033.15,-259.27 1012.65,-269.53 984.2,-252 960.28,-237.25 893.25,-204.9 880.2,-180 872.78,-165.83 871.49,-157.42 880.2,-144 901.67,-110.97 926.2,-126.08 961.2,-108 985.42,-95.49 1049.74,-56.57 1085.8,-34.57"/>
</g>
<!-- 01.intersection.low -->
<g id="node56" class="node">
<title>01.intersection.low</title>
<ellipse fill="none" stroke="black" cx="598.2" cy="-378" rx="78.79" ry="18"/>
<text text-anchor="middle" x="598.2" y="-374.3" font-family="Times,serif" font-size="14.00">01.intersection.low</text>
</g>
<!-- 09.intersection.high&#45;&#45;01.intersection.low -->
<g id="edge56" class="edge">
<title>09.intersection.high&#45;&#45;01.intersection.low</title>
<path fill="none" stroke="black" d="M53.85,-506.52C36.1,-498.2 17.37,-485.79 7.2,-468 -0.74,-454.11 -3.59,-443.81 7.2,-432 41.16,-394.87 367.51,-383.54 520.18,-380.26"/>
</g>
<!-- 01.intersection.low&#45;&#45;02.straight.bottom -->
<g id="edge71" class="edge">
<title>01.intersection.low&#45;&#45;02.straight.bottom</title>
<path fill="none" stroke="black" d="M595.73,-359.7C594.18,-348.85 592.19,-334.92 590.65,-324.1"/>
</g>
<!-- 08.straight.bottom -->
<g id="node57" class="node">
<title>08.straight.bottom</title>
<ellipse fill="none" stroke="black" cx="852.2" cy="-378" rx="76.09" ry="18"/>
<text text-anchor="middle" x="852.2" y="-374.3" font-family="Times,serif" font-size="14.00">08.straight.bottom</text>
</g>
<!-- 08.straight.bottom&#45;&#45;02.intersection.low -->
<g id="edge59" class="edge">
<title>08.straight.bottom&#45;&#45;02.intersection.low</title>
<path fill="none" stroke="black" d="M826.69,-360.89C810.23,-350.45 788.39,-336.52 769.2,-324 745.05,-308.24 739.79,-303.08 715.2,-288 687.39,-270.94 667.68,-280.17 651.2,-252 625.2,-207.54 654.14,-177.56 693.2,-144 726.2,-115.66 759.75,-143.97 784.2,-108 799.64,-85.29 780.76,-54.61 765.58,-35.85"/>
</g>
<!-- 08.straight.bottom&#45;&#45;05.intersection.bottom -->
<g id="edge58" class="edge">
<title>08.straight.bottom&#45;&#45;05.intersection.bottom</title>
<path fill="none" stroke="black" d="M813.77,-362.34C789.12,-352.47 756.71,-338.64 729.2,-324 703.09,-310.1 698.34,-303.61 673.2,-288 646.79,-271.59 628.53,-279.06 613.2,-252 584.76,-201.76 637.01,-137.95 666.32,-107.99"/>
</g>
<!-- 23.straight.top&#45;&#45;23.straight.bottom -->
<g id="edge65" class="edge">
<title>23.straight.top&#45;&#45;23.straight.bottom</title>
<path fill="none" stroke="black" d="M1987.65,-79.49C1918.81,-66.53 1795.93,-43.41 1723.67,-29.81"/>
</g>
<!-- 23.straight.top&#45;&#45;22.straight.top -->
<g id="edge66" class="edge">
<title>23.straight.top&#45;&#45;22.straight.top</title>
<path fill="none" stroke="black" d="M2013.97,-73.29C1996.18,-61.76 1972.13,-46.17 1954.36,-34.66"/>
</g>
</g>
</svg>
